<svg width="2255" height="870" viewBox="0 0 2255 870" fill="none" xmlns="http://www.w3.org/2000/svg">
<g clip-path="url(#clip0_1_3)">
<g clip-path="url(#clip1_1_3)">
<path d="M4 528C4 529.109 5.63065 530 7.66125 530H2251.34C2253.37 530 2255 529.109 2255 528C2255 526.891 2253.37 526 2251.34 526H7.66125C5.63065 526 4 526.891 4 528Z" fill="#3F3D56"/>
<path d="M1780.02 128.941L1786.88 206.286L1886.4 169.686L1830.26 91.02L1780.02 128.941Z" fill="#A0616A"/>
<path d="M1777.03 152.505C1818 152.505 1851.22 123.261 1851.22 87.188C1851.22 51.1146 1818 21.8713 1777.03 21.8713C1736.06 21.8713 1702.85 51.1146 1702.85 87.188C1702.85 123.261 1736.06 152.505 1777.03 152.505Z" fill="#A0616A"/>
<path d="M1638.25 696.177L1650.81 795.383L1562.88 784.659L1591.59 693.016L1638.25 696.177Z" fill="#A0616A"/>
<path d="M1981 710.397L1993.56 809.604L1905.63 798.879L1934.34 707.237L1981 710.397Z" fill="#A0616A"/>
<path d="M1771.94 410.979C1770.74 410.979 1674.77 415.221 1611.37 418.03C1581.36 419.36 1558.52 442.229 1560.85 468.605L1583.51 725.407L1648.12 726.987L1649.69 520.002L1777.32 526.322L1771.94 410.979Z" fill="#2F2E41"/>
<path d="M2053.68 409.399C2053.68 409.399 2069.83 518.422 2057.27 529.482C2044.71 540.542 1650.81 520.792 1650.81 520.792C1650.81 520.792 1737.22 410.92 1752.79 407.789C1768.35 404.659 2016 393.598 2016 393.598L2053.68 409.399Z" fill="#2F2E41"/>
<path d="M1543.39 272.136C1528.39 253.664 1527.06 231.877 1540.41 223.473C1553.76 215.069 1576.74 223.233 1591.75 241.713C1597.86 249.022 1601.89 257.514 1603.5 266.476L1665.94 345.449L1630.41 367.109L1566.21 289.948C1557.1 285.701 1549.27 279.593 1543.39 272.136Z" fill="#A0616A"/>
<path d="M1776.43 177.922L1867.95 144.741L2040.22 378.588C2040.22 378.588 1919.99 402.288 1878.71 407.029C1837.44 411.769 1790.78 392.808 1790.78 392.808L1776.43 177.922Z" fill="#6C63FF"/>
<path d="M1887.69 217.423L1854.49 126.241L1897.56 155.012C1897.56 155.012 2019.58 226.114 2019.58 256.134C2019.58 286.155 2057.27 377.798 2057.27 377.798C2057.27 377.798 2099.44 408.609 2085.08 437.049C2070.73 465.49 2103.93 461.54 2107.52 482.081C2111.11 502.621 2056.37 530.272 2056.37 530.272C2056.37 530.272 2042.91 414.139 1999.84 414.139C1956.78 414.139 1887.69 217.423 1887.69 217.423Z" fill="#3F3D56"/>
<path d="M1782.86 175.591L1737.84 191.353C1737.84 191.353 1745.02 301.956 1752.2 311.436C1759.38 320.916 1784.5 371.478 1784.5 371.478V387.956C1784.5 387.956 1734.26 401.498 1736.05 409.399C1737.84 417.299 1854.49 439.419 1854.49 439.419C1854.49 439.419 1831.16 376.218 1816.8 355.677C1802.45 335.137 1782.86 175.591 1782.86 175.591Z" fill="#3F3D56"/>
<path d="M1753.99 191.353C1753.99 191.353 1701.95 185.032 1692.98 238.754C1684.01 292.475 1689.71 299.586 1689.71 299.586L1675.04 330.396L1626.58 282.995L1579.93 309.856C1579.93 309.856 1664.27 429.939 1698.36 426.779C1732.46 423.619 1782.71 336.717 1782.71 336.717L1753.99 191.353Z" fill="#3F3D56"/>
<path d="M2013.91 426.84L1987.28 758.588L1918.19 756.218C1918.19 756.218 1902.94 442.579 1902.94 437.839C1902.94 433.099 1910.12 406.238 1954.98 404.658C1999.84 403.078 2013.91 426.84 2013.91 426.84Z" fill="#2F2E41"/>
<path d="M1913.71 764.908C1913.71 764.908 1949.6 755.428 1954.98 761.748C1960.37 768.068 1990.87 771.229 1990.87 771.229L1999.84 848.651C1999.84 848.651 1974.72 864.451 1971.13 867.611C1967.54 870.771 1872.43 873.931 1870.64 854.971C1868.84 836.01 1895.76 812.31 1895.76 812.31L1913.71 764.908Z" fill="#2F2E41"/>
<path d="M1649.91 742.788C1649.91 742.788 1660.68 734.888 1664.27 757.008C1667.86 779.129 1680.42 815.47 1662.47 820.21C1644.53 824.95 1465.08 826.53 1465.08 812.31V798.089L1481.23 787.029L1513.54 782.496C1513.54 782.496 1576.34 731.727 1583.52 731.727C1590.69 731.727 1614.02 752.268 1614.02 752.268L1649.91 742.788Z" fill="#2F2E41"/>
<path d="M1850 122.621C1850 122.621 1814.11 84.6998 1799.76 87.8599C1785.4 91.02 1794.37 95.7601 1794.37 95.7601L1758.48 60.9991C1758.48 60.9991 1729.77 51.5189 1702.85 81.5397C1702.85 81.5397 1686.7 56.259 1702.85 42.0386C1719 27.8182 1724.39 29.3983 1727.97 21.498C1731.56 13.5978 1756.69 7.27766 1756.69 7.27766C1756.69 7.27766 1755.25 -4.09368 1763.14 1.59198C1771.04 7.27764 1790.77 7.27766 1790.77 7.27766C1790.77 7.27766 1790.88 0.957485 1798.91 7.27766C1806.93 13.5978 1815.91 10.4377 1815.91 10.4377C1815.91 10.4377 1815.91 21.3736 1822.19 21.4358C1828.47 21.498 1839.23 13.5978 1841.03 19.918C1842.82 26.2382 1855.39 29.3983 1857.18 48.3588C1858.97 67.3193 1850 122.621 1850 122.621Z" fill="#2F2E41"/>
<path d="M1557.51 282.589L1352.51 407.139C1345.44 411.437 1335.71 409.866 1330.83 403.638L1273.12 329.994C1268.23 323.765 1270.02 315.201 1277.09 310.903L1482.09 186.353C1489.17 182.055 1498.89 183.626 1503.77 189.854L1561.49 263.498C1566.37 269.727 1564.59 278.291 1557.51 282.589Z" fill="white"/>
<path d="M1503.4 190.084L1561.11 263.727C1565.86 269.786 1564.13 278.076 1557.25 282.257L1456.64 343.383C1430.11 336.999 1405.9 322.66 1389.06 301.17C1378.03 287.093 1371.38 271.509 1368.84 255.651L1482.35 186.685C1489.23 182.504 1498.65 184.024 1503.4 190.084Z" fill="#E6E6E6"/>
<path d="M1343.69 411.142C1338.16 411.142 1332.72 408.833 1329.35 404.536L1271.64 330.891C1269.01 327.531 1268.02 323.465 1268.86 319.439C1269.69 315.413 1272.26 311.92 1276.07 309.602L1481.07 185.052C1488.96 180.261 1499.81 182.014 1505.25 188.956L1562.97 262.601C1565.6 265.961 1566.59 270.027 1565.75 274.053C1564.91 278.077 1562.35 281.572 1558.53 283.89L1353.53 408.44C1350.52 410.265 1347.09 411.142 1343.69 411.142ZM1490.92 185.509C1488.22 185.509 1485.5 186.205 1483.11 187.654L1278.11 312.204C1275.08 314.042 1273.05 316.814 1272.39 320.01C1271.72 323.204 1272.5 326.432 1274.59 329.095L1332.31 402.74C1336.63 408.249 1345.23 409.642 1351.49 405.838L1556.49 281.288C1559.52 279.45 1561.55 276.678 1562.22 273.482C1562.88 270.288 1562.1 267.06 1560.01 264.397L1502.3 190.752C1499.62 187.342 1495.31 185.509 1490.92 185.509Z" fill="#3F3D56"/>
<path d="M1345.17 374.371C1339.97 377.528 1338.66 383.817 1342.25 388.392C1345.83 392.966 1352.98 394.12 1358.17 390.963L1379.28 378.14C1384.47 374.984 1385.78 368.694 1382.2 364.119C1378.61 359.545 1371.47 358.391 1366.28 361.548L1345.17 374.371Z" fill="#6C63FF"/>
<path d="M1359.48 271.627C1351.28 276.607 1349.21 286.531 1354.87 293.749C1360.52 300.967 1371.79 302.786 1379.99 297.806L1412.82 277.859C1421.02 272.878 1423.09 262.955 1417.43 255.737C1411.78 248.52 1400.5 246.699 1392.31 251.68L1359.48 271.627Z" fill="#6C63FF"/>
<path d="M1552.6 293.586H1303.54C1294.94 293.586 1287.95 287.429 1287.95 279.862V190.387C1287.95 182.819 1294.94 176.663 1303.54 176.663H1552.6C1561.2 176.663 1568.19 182.819 1568.19 190.387V279.862C1568.19 287.429 1561.2 293.586 1552.6 293.586Z" fill="white"/>
<path d="M1567.73 190.387V279.861C1567.73 287.224 1560.97 293.183 1552.6 293.183H1430.37C1412.65 274.66 1401.97 250.752 1401.97 224.641C1401.97 207.538 1406.55 191.387 1414.69 177.066H1552.6C1560.97 177.066 1567.73 183.025 1567.73 190.387Z" fill="#E6E6E6"/>
<path d="M1552.6 295.166H1303.54C1293.95 295.166 1286.15 288.301 1286.15 279.862V190.386C1286.15 181.947 1293.95 175.083 1303.54 175.083H1552.6C1562.19 175.083 1569.99 181.947 1569.99 190.386V279.862C1569.99 288.301 1562.19 295.166 1552.6 295.166ZM1303.54 178.243C1295.93 178.243 1289.74 183.69 1289.74 190.386V279.862C1289.74 286.559 1295.93 292.006 1303.54 292.006H1552.6C1560.21 292.006 1566.4 286.559 1566.4 279.862V190.386C1566.4 183.69 1560.21 178.243 1552.6 178.243H1303.54Z" fill="#3F3D56"/>
<path d="M1318.63 262.944C1312.32 262.944 1307.18 267.466 1307.18 273.024C1307.18 278.581 1312.32 283.103 1318.63 283.103H1344.27C1350.58 283.103 1355.72 278.581 1355.72 273.024C1355.72 267.466 1350.58 262.944 1344.27 262.944H1318.63Z" fill="#6C63FF"/>
<path d="M1396.68 185.533C1386.72 185.533 1378.61 192.667 1378.61 201.436C1378.61 210.206 1386.72 217.339 1396.68 217.339H1436.57C1446.53 217.339 1454.63 210.206 1454.63 201.436C1454.63 192.667 1446.53 185.533 1436.57 185.533H1396.68Z" fill="#6C63FF"/>
<path d="M1760.77 603.274H1511.7C1503.11 603.274 1496.11 597.118 1496.11 589.55V500.075C1496.11 492.507 1503.11 486.351 1511.7 486.351H1760.77C1769.36 486.351 1776.36 492.507 1776.36 500.075V589.55C1776.36 597.118 1769.36 603.274 1760.77 603.274Z" fill="white"/>
<path d="M1775.9 500.075V589.55C1775.9 596.912 1769.13 602.871 1760.77 602.871H1638.53C1620.81 584.349 1610.13 560.44 1610.13 534.33C1610.13 517.227 1614.71 501.075 1622.85 486.754H1760.77C1769.13 486.754 1775.9 492.713 1775.9 500.075Z" fill="#E6E6E6"/>
<path d="M1760.77 604.854H1511.7C1502.12 604.854 1494.32 597.989 1494.32 589.551V500.075C1494.32 491.636 1502.12 484.771 1511.7 484.771H1760.77C1770.35 484.771 1778.15 491.636 1778.15 500.075V589.551C1778.15 597.989 1770.35 604.854 1760.77 604.854ZM1511.7 487.931C1504.1 487.931 1497.91 493.378 1497.91 500.075V589.551C1497.91 596.247 1504.1 601.694 1511.7 601.694H1760.77C1768.37 601.694 1774.56 596.247 1774.56 589.551V500.075C1774.56 493.378 1768.37 487.931 1760.77 487.931H1511.7Z" fill="#3F3D56"/>
<path d="M1526.79 572.632C1520.48 572.632 1515.35 577.154 1515.35 582.712C1515.35 588.27 1520.48 592.792 1526.79 592.792H1552.44C1558.75 592.792 1563.88 588.27 1563.88 582.712C1563.88 577.154 1558.75 572.632 1552.44 572.632H1526.79Z" fill="#6C63FF"/>
<path d="M1604.84 495.221C1594.88 495.221 1586.78 502.356 1586.78 511.125C1586.78 519.894 1594.88 527.028 1604.84 527.028H1644.73C1654.69 527.028 1662.79 519.894 1662.79 511.125C1662.79 502.356 1654.69 495.221 1644.73 495.221H1604.84Z" fill="#6C63FF"/>
<path d="M1777.66 523.021C1754.79 533.508 1730.1 531.617 1722.52 518.798C1714.94 505.979 1727.35 487.09 1750.23 476.601C1759.31 472.301 1769.42 469.977 1779.73 469.824L1877.29 426.466L1896.66 460.478L1800.89 505.628C1794.84 512.976 1786.87 518.94 1777.66 523.021Z" fill="#A0616A"/>
<path d="M1888.58 153.432C1888.58 153.432 1989.08 148.692 2010.61 196.093C2032.15 243.494 2050.09 398.338 2050.09 398.338L1831.16 503.212L1793.47 452.06L1940.63 350.937L1888.58 153.432Z" fill="#3F3D56"/>
</g>
<line x1="0.00212314" y1="527" x2="942.002" y2="528" stroke="#3F3D56" stroke-width="4"/>
<g filter="url(#filter0_dddii_1_3)">
<path d="M106.412 245.091H150.645L181.071 319.239H182.605L213.031 245.091H257.264V376H222.492V300.318H221.469L192.321 374.977H171.355L142.208 299.807H141.185V376H106.412V245.091ZM296.096 412.818C292.048 412.818 288.191 412.499 284.526 411.859C280.862 411.263 277.644 410.432 274.874 409.366L282.545 384.31C285.443 385.332 288.085 385.993 290.471 386.291C292.9 386.589 294.967 386.419 296.671 385.78C298.419 385.141 299.676 383.926 300.443 382.136L301.21 380.347L266.693 277.818H303.511L319.363 345.83H320.386L336.494 277.818H373.568L337.772 384.182C335.982 389.594 333.383 394.452 329.974 398.756C326.607 403.102 322.176 406.533 316.678 409.047C311.181 411.561 304.32 412.818 296.096 412.818ZM418.951 376V245.091H475.457C485.173 245.091 493.674 247.009 500.961 250.844C508.248 254.679 513.916 260.07 517.964 267.016C522.012 273.962 524.036 282.08 524.036 291.369C524.036 300.744 521.948 308.862 517.772 315.723C513.639 322.584 507.822 327.868 500.322 331.575C492.865 335.283 484.15 337.136 474.178 337.136H440.428V309.523H467.019C471.195 309.523 474.754 308.798 477.694 307.349C480.677 305.858 482.957 303.749 484.534 301.021C486.153 298.294 486.963 295.077 486.963 291.369C486.963 287.619 486.153 284.423 484.534 281.781C482.957 279.097 480.677 277.051 477.694 275.645C474.754 274.196 471.195 273.472 467.019 273.472H454.491V376H418.951ZM582.779 377.79C572.126 377.79 563.007 375.68 555.421 371.462C547.836 367.2 542.019 361.277 537.971 353.692C533.923 346.064 531.899 337.222 531.899 327.165C531.899 317.108 533.923 308.287 537.971 300.702C542.019 293.074 547.836 287.151 555.421 282.932C563.007 278.67 572.126 276.54 582.779 276.54C593.433 276.54 602.552 278.67 610.137 282.932C617.722 287.151 623.539 293.074 627.588 300.702C631.636 308.287 633.66 317.108 633.66 327.165C633.66 337.222 631.636 346.064 627.588 353.692C623.539 361.277 617.722 367.2 610.137 371.462C602.552 375.68 593.433 377.79 582.779 377.79ZM583.035 351.71C586.018 351.71 588.596 350.709 590.769 348.706C592.943 346.703 594.626 343.848 595.819 340.141C597.012 336.433 597.609 332.023 597.609 326.909C597.609 321.753 597.012 317.342 595.819 313.678C594.626 309.97 592.943 307.115 590.769 305.112C588.596 303.109 586.018 302.108 583.035 302.108C579.882 302.108 577.176 303.109 574.917 305.112C572.659 307.115 570.933 309.97 569.74 313.678C568.546 317.342 567.95 321.753 567.95 326.909C567.95 332.023 568.546 336.433 569.74 340.141C570.933 343.848 572.659 346.703 574.917 348.706C577.176 350.709 579.882 351.71 583.035 351.71ZM647.978 376V277.818H682.24V296.483H683.262C685.052 289.58 687.886 284.53 691.764 281.334C695.684 278.138 700.265 276.54 705.507 276.54C707.041 276.54 708.553 276.668 710.045 276.923C711.579 277.136 713.049 277.456 714.455 277.882V307.989C712.708 307.392 710.556 306.945 707.999 306.646C705.443 306.348 703.248 306.199 701.416 306.199C697.964 306.199 694.853 306.987 692.083 308.564C689.356 310.098 687.204 312.271 685.627 315.084C684.051 317.854 683.262 321.114 683.262 324.864V376H647.978ZM788.619 277.818V303.386H723.932V277.818H788.619ZM736.46 254.295H771.744V344.423C771.744 345.787 771.979 346.938 772.447 347.875C772.916 348.77 773.64 349.452 774.621 349.92C775.601 350.347 776.858 350.56 778.392 350.56C779.457 350.56 780.693 350.432 782.099 350.176C783.548 349.92 784.613 349.707 785.295 349.537L790.409 374.338C788.832 374.807 786.574 375.382 783.633 376.064C780.736 376.746 777.284 377.193 773.278 377.406C765.182 377.832 758.385 377.001 752.888 374.913C747.39 372.783 743.257 369.437 740.487 364.878C737.717 360.318 736.375 354.608 736.46 347.747V254.295ZM861.824 277.818V303.386H796.114V277.818H861.824ZM808.642 376V275.006C808.642 266.909 810.091 260.197 812.989 254.871C815.887 249.544 819.977 245.56 825.262 242.918C830.546 240.276 836.767 238.955 843.926 238.955C848.401 238.955 852.747 239.295 856.966 239.977C861.227 240.659 864.381 241.256 866.426 241.767L861.313 267.08C860.034 266.696 858.543 266.398 856.838 266.185C855.134 265.929 853.642 265.801 852.364 265.801C849.04 265.801 846.803 266.504 845.652 267.911C844.502 269.317 843.926 271.17 843.926 273.472V376H808.642ZM919.752 377.79C909.099 377.79 899.979 375.68 892.394 371.462C884.809 367.2 878.992 361.277 874.944 353.692C870.895 346.064 868.871 337.222 868.871 327.165C868.871 317.108 870.895 308.287 874.944 300.702C878.992 293.074 884.809 287.151 892.394 282.932C899.979 278.67 909.099 276.54 919.752 276.54C930.405 276.54 939.525 278.67 947.11 282.932C954.695 287.151 960.512 293.074 964.56 300.702C968.608 308.287 970.633 317.108 970.633 327.165C970.633 337.222 968.608 346.064 964.56 353.692C960.512 361.277 954.695 367.2 947.11 371.462C939.525 375.68 930.405 377.79 919.752 377.79ZM920.008 351.71C922.991 351.71 925.569 350.709 927.742 348.706C929.915 346.703 931.599 343.848 932.792 340.141C933.985 336.433 934.582 332.023 934.582 326.909C934.582 321.753 933.985 317.342 932.792 313.678C931.599 309.97 929.915 307.115 927.742 305.112C925.569 303.109 922.991 302.108 920.008 302.108C916.854 302.108 914.148 303.109 911.89 305.112C909.631 307.115 907.905 309.97 906.712 313.678C905.519 317.342 904.922 321.753 904.922 326.909C904.922 332.023 905.519 336.433 906.712 340.141C907.905 343.848 909.631 346.703 911.89 348.706C914.148 350.709 916.854 351.71 920.008 351.71ZM1020.23 245.091V376H984.951V245.091H1020.23ZM1038.21 376V277.818H1073.5V376H1038.21ZM1055.85 267.591C1051.08 267.591 1046.99 266.014 1043.58 262.861C1040.17 259.707 1038.47 255.915 1038.47 251.483C1038.47 247.051 1040.17 243.259 1043.58 240.105C1046.99 236.952 1051.08 235.375 1055.85 235.375C1060.67 235.375 1064.76 236.952 1068.13 240.105C1071.54 243.259 1073.24 247.051 1073.24 251.483C1073.24 255.915 1071.54 259.707 1068.13 262.861C1064.76 266.014 1060.67 267.591 1055.85 267.591ZM1138.78 377.79C1128.12 377.79 1119 375.68 1111.42 371.462C1103.83 367.2 1098.02 361.277 1093.97 353.692C1089.92 346.064 1087.89 337.222 1087.89 327.165C1087.89 317.108 1089.92 308.287 1093.97 300.702C1098.02 293.074 1103.83 287.151 1111.42 282.932C1119 278.67 1128.12 276.54 1138.78 276.54C1149.43 276.54 1158.55 278.67 1166.13 282.932C1173.72 287.151 1179.54 293.074 1183.58 300.702C1187.63 308.287 1189.66 317.108 1189.66 327.165C1189.66 337.222 1187.63 346.064 1183.58 353.692C1179.54 361.277 1173.72 367.2 1166.13 371.462C1158.55 375.68 1149.43 377.79 1138.78 377.79ZM1139.03 351.71C1142.01 351.71 1144.59 350.709 1146.77 348.706C1148.94 346.703 1150.62 343.848 1151.82 340.141C1153.01 336.433 1153.6 332.023 1153.6 326.909C1153.6 321.753 1153.01 317.342 1151.82 313.678C1150.62 309.97 1148.94 307.115 1146.77 305.112C1144.59 303.109 1142.01 302.108 1139.03 302.108C1135.88 302.108 1133.17 303.109 1130.91 305.112C1128.65 307.115 1126.93 309.97 1125.74 313.678C1124.54 317.342 1123.95 321.753 1123.95 326.909C1123.95 332.023 1124.54 336.433 1125.74 340.141C1126.93 343.848 1128.65 346.703 1130.91 348.706C1133.17 350.709 1135.88 351.71 1139.03 351.71Z" fill="#270054"/>
</g>
<g filter="url(#filter1_bdi_1_3)">
<rect x="417" y="624" width="458" height="139" rx="50" fill="#F72585"/>
</g>
<path d="M828.388 676.287L845.468 694.257M845.468 694.257L827.347 711.48M845.468 694.257L763.334 692.515" stroke="white" stroke-width="12" stroke-linecap="round" stroke-linejoin="round"/>
<path d="M443.096 715.771C439.384 715.771 436.186 714.934 433.501 713.26C430.816 711.57 428.753 709.25 427.311 706.3C425.886 703.333 425.173 699.928 425.173 696.083C425.173 692.189 425.903 688.758 427.361 685.792C428.836 682.826 430.907 680.505 433.575 678.832C436.26 677.158 439.409 676.321 443.021 676.321C445.988 676.321 448.623 676.868 450.926 677.962C453.23 679.039 455.086 680.563 456.494 682.536C457.903 684.491 458.732 686.778 458.98 689.396H451.349C450.968 687.59 450.081 686.049 448.689 684.773C447.314 683.497 445.466 682.859 443.146 682.859C441.141 682.859 439.384 683.389 437.876 684.45C436.384 685.51 435.216 687.018 434.371 688.974C433.542 690.913 433.128 693.224 433.128 695.909C433.128 698.643 433.534 701.005 434.346 702.994C435.175 704.966 436.343 706.49 437.851 707.567C439.359 708.645 441.124 709.183 443.146 709.183C444.538 709.183 445.797 708.926 446.924 708.413C448.051 707.899 448.996 707.153 449.758 706.175C450.52 705.198 451.051 704.021 451.349 702.646H458.98C458.715 705.181 457.911 707.443 456.569 709.432C455.227 711.404 453.412 712.953 451.125 714.08C448.838 715.207 446.162 715.771 443.096 715.771ZM474.641 664.091V715H466.786V664.091H474.641ZM484.422 715V676.818H492.278V715H484.422ZM488.4 671.076C487.057 671.076 485.914 670.629 484.969 669.734C484.025 668.839 483.552 667.762 483.552 666.502C483.552 665.243 484.025 664.165 484.969 663.271C485.93 662.376 487.066 661.928 488.375 661.928C489.717 661.928 490.861 662.376 491.805 663.271C492.75 664.165 493.222 665.243 493.222 666.502C493.222 667.762 492.75 668.839 491.805 669.734C490.861 670.629 489.725 671.076 488.4 671.076ZM518.291 715.771C514.579 715.771 511.381 714.934 508.696 713.26C506.012 711.57 503.948 709.25 502.507 706.3C501.081 703.333 500.369 699.928 500.369 696.083C500.369 692.189 501.098 688.758 502.556 685.792C504.031 682.826 506.103 680.505 508.771 678.832C511.455 677.158 514.604 676.321 518.217 676.321C521.183 676.321 523.818 676.868 526.122 677.962C528.425 679.039 530.281 680.563 531.69 682.536C533.098 684.491 533.927 686.778 534.176 689.396H526.544C526.163 687.59 525.276 686.049 523.884 684.773C522.509 683.497 520.661 682.859 518.341 682.859C516.336 682.859 514.579 683.389 513.071 684.45C511.58 685.51 510.411 687.018 509.566 688.974C508.738 690.913 508.323 693.224 508.323 695.909C508.323 698.643 508.729 701.005 509.541 702.994C510.37 704.966 511.538 706.49 513.046 707.567C514.554 708.645 516.319 709.183 518.341 709.183C519.733 709.183 520.993 708.926 522.119 708.413C523.246 707.899 524.191 707.153 524.953 706.175C525.716 705.198 526.246 704.021 526.544 702.646H534.176C533.91 705.181 533.107 707.443 531.764 709.432C530.422 711.404 528.607 712.953 526.32 714.08C524.034 715.207 521.357 715.771 518.291 715.771ZM549.19 702.322L549.14 692.752H550.482L565.298 676.818H574.644L557.418 695.312H556.051L549.19 702.322ZM541.981 715V664.091H549.836V715H541.981ZM566.044 715L552.72 697.077L558.114 691.559L575.614 715H566.044ZM607.258 692.404V715H599.403V664.091H607.134V683.107H607.606C608.501 681.019 609.868 679.37 611.708 678.161C613.564 676.934 615.967 676.321 618.916 676.321C621.551 676.321 623.847 676.868 625.802 677.962C627.774 679.039 629.307 680.646 630.401 682.784C631.494 684.922 632.033 687.565 632.017 690.714V715H624.161V691.758C624.161 689.007 623.457 686.877 622.048 685.369C620.64 683.845 618.676 683.082 616.157 683.082C614.45 683.082 612.926 683.447 611.583 684.176C610.241 684.905 609.189 685.966 608.426 687.358C607.664 688.75 607.275 690.432 607.258 692.404ZM658.366 715.771C654.588 715.771 651.331 714.967 648.597 713.359C645.862 711.735 643.758 709.457 642.283 706.523C640.825 703.574 640.095 700.118 640.095 696.158C640.095 692.23 640.833 688.783 642.308 685.817C643.783 682.834 645.846 680.505 648.497 678.832C651.149 677.158 654.264 676.321 657.844 676.321C660.065 676.321 662.194 676.686 664.232 677.415C666.271 678.127 668.094 679.254 669.701 680.795C671.309 682.337 672.576 684.325 673.504 686.761C674.449 689.181 674.921 692.106 674.921 695.536V698.196H644.296V692.504H667.24C667.24 690.614 666.851 688.932 666.072 687.457C665.31 685.982 664.224 684.822 662.816 683.977C661.423 683.132 659.791 682.71 657.919 682.71C655.897 682.71 654.132 683.198 652.624 684.176C651.132 685.154 649.972 686.438 649.144 688.029C648.332 689.603 647.917 691.31 647.901 693.15V697.773C647.901 700.226 648.34 702.322 649.218 704.062C650.097 705.786 651.323 707.103 652.897 708.015C654.488 708.926 656.336 709.382 658.441 709.382C659.833 709.382 661.092 709.183 662.219 708.786C663.362 708.388 664.34 707.799 665.152 707.021C665.981 706.225 666.611 705.247 667.041 704.087L674.474 705.256C673.91 707.36 672.9 709.208 671.441 710.799C669.983 712.373 668.143 713.6 665.923 714.478C663.719 715.34 661.2 715.771 658.366 715.771ZM683.006 715V676.818H690.613V682.958H691.011C691.707 680.87 692.925 679.229 694.665 678.036C696.421 676.843 698.41 676.246 700.631 676.246C701.111 676.246 701.666 676.263 702.296 676.296C702.926 676.329 703.431 676.379 703.812 676.445V683.903C703.498 683.803 702.951 683.696 702.172 683.58C701.393 683.464 700.622 683.406 699.86 683.406C698.137 683.406 696.595 683.77 695.237 684.499C693.894 685.228 692.825 686.239 692.03 687.532C691.251 688.808 690.862 690.275 690.862 691.932V715H683.006ZM725.29 715.771C721.511 715.771 718.255 714.967 715.521 713.359C712.786 711.735 710.682 709.457 709.207 706.523C707.748 703.574 707.019 700.118 707.019 696.158C707.019 692.23 707.757 688.783 709.232 685.817C710.706 682.834 712.77 680.505 715.421 678.832C718.073 677.158 721.188 676.321 724.768 676.321C726.988 676.321 729.118 676.686 731.156 677.415C733.195 678.127 735.018 679.254 736.625 680.795C738.232 682.337 739.5 684.325 740.428 686.761C741.373 689.181 741.845 692.106 741.845 695.536V698.196H711.22V692.504H734.164C734.164 690.614 733.775 688.932 732.996 687.457C732.233 685.982 731.148 684.822 729.739 683.977C728.347 683.132 726.715 682.71 724.842 682.71C722.821 682.71 721.056 683.198 719.548 684.176C718.056 685.154 716.896 686.438 716.067 688.029C715.255 689.603 714.841 691.31 714.825 693.15V697.773C714.825 700.226 715.264 702.322 716.142 704.062C717.02 705.786 718.247 707.103 719.821 708.015C721.412 708.926 723.26 709.382 725.364 709.382C726.756 709.382 728.016 709.183 729.143 708.786C730.286 708.388 731.264 707.799 732.076 707.021C732.905 706.225 733.534 705.247 733.965 704.087L741.398 705.256C740.834 707.36 739.823 709.208 738.365 710.799C736.907 712.373 735.067 713.6 732.847 714.478C730.643 715.34 728.124 715.771 725.29 715.771Z" fill="white"/>
</g>
<defs>
<filter id="filter0_dddii_1_3" x="102.412" y="235.375" width="1091.24" height="185.443" filterUnits="userSpaceOnUse" color-interpolation-filters="sRGB">
<feFlood flood-opacity="0" result="BackgroundImageFix"/>
<feColorMatrix in="SourceAlpha" type="matrix" values="0 0 0 0 0 0 0 0 0 0 0 0 0 0 0 0 0 0 127 0" result="hardAlpha"/>
<feOffset dy="4"/>
<feGaussianBlur stdDeviation="2"/>
<feComposite in2="hardAlpha" operator="out"/>
<feColorMatrix type="matrix" values="0 0 0 0 0 0 0 0 0 0 0 0 0 0 0 0 0 0 0.25 0"/>
<feBlend mode="normal" in2="BackgroundImageFix" result="effect1_dropShadow_1_3"/>
<feColorMatrix in="SourceAlpha" type="matrix" values="0 0 0 0 0 0 0 0 0 0 0 0 0 0 0 0 0 0 127 0" result="hardAlpha"/>
<feOffset dy="4"/>
<feGaussianBlur stdDeviation="2"/>
<feComposite in2="hardAlpha" operator="out"/>
<feColorMatrix type="matrix" values="0 0 0 0 0 0 0 0 0 0 0 0 0 0 0 0 0 0 0.25 0"/>
<feBlend mode="normal" in2="effect1_dropShadow_1_3" result="effect2_dropShadow_1_3"/>
<feColorMatrix in="SourceAlpha" type="matrix" values="0 0 0 0 0 0 0 0 0 0 0 0 0 0 0 0 0 0 127 0" result="hardAlpha"/>
<feOffset dy="4"/>
<feGaussianBlur stdDeviation="2"/>
<feComposite in2="hardAlpha" operator="out"/>
<feColorMatrix type="matrix" values="0 0 0 0 0 0 0 0 0 0 0 0 0 0 0 0 0 0 0.25 0"/>
<feBlend mode="normal" in2="effect2_dropShadow_1_3" result="effect3_dropShadow_1_3"/>
<feBlend mode="normal" in="SourceGraphic" in2="effect3_dropShadow_1_3" result="shape"/>
<feColorMatrix in="SourceAlpha" type="matrix" values="0 0 0 0 0 0 0 0 0 0 0 0 0 0 0 0 0 0 127 0" result="hardAlpha"/>
<feOffset dy="4"/>
<feGaussianBlur stdDeviation="2"/>
<feComposite in2="hardAlpha" operator="arithmetic" k2="-1" k3="1"/>
<feColorMatrix type="matrix" values="0 0 0 0 0 0 0 0 0 0 0 0 0 0 0 0 0 0 0.25 0"/>
<feBlend mode="normal" in2="shape" result="effect4_innerShadow_1_3"/>
<feColorMatrix in="SourceAlpha" type="matrix" values="0 0 0 0 0 0 0 0 0 0 0 0 0 0 0 0 0 0 127 0" result="hardAlpha"/>
<feOffset dy="4"/>
<feGaussianBlur stdDeviation="2"/>
<feComposite in2="hardAlpha" operator="arithmetic" k2="-1" k3="1"/>
<feColorMatrix type="matrix" values="0 0 0 0 0 0 0 0 0 0 0 0 0 0 0 0 0 0 0.25 0"/>
<feBlend mode="normal" in2="effect4_innerShadow_1_3" result="effect5_innerShadow_1_3"/>
</filter>
<filter id="filter1_bdi_1_3" x="413" y="620" width="466" height="151" filterUnits="userSpaceOnUse" color-interpolation-filters="sRGB">
<feFlood flood-opacity="0" result="BackgroundImageFix"/>
<feGaussianBlur in="BackgroundImageFix" stdDeviation="2"/>
<feComposite in2="SourceAlpha" operator="in" result="effect1_backgroundBlur_1_3"/>
<feColorMatrix in="SourceAlpha" type="matrix" values="0 0 0 0 0 0 0 0 0 0 0 0 0 0 0 0 0 0 127 0" result="hardAlpha"/>
<feOffset dy="4"/>
<feGaussianBlur stdDeviation="2"/>
<feComposite in2="hardAlpha" operator="out"/>
<feColorMatrix type="matrix" values="0 0 0 0 0 0 0 0 0 0 0 0 0 0 0 0 0 0 0.25 0"/>
<feBlend mode="normal" in2="effect1_backgroundBlur_1_3" result="effect2_dropShadow_1_3"/>
<feBlend mode="normal" in="SourceGraphic" in2="effect2_dropShadow_1_3" result="shape"/>
<feColorMatrix in="SourceAlpha" type="matrix" values="0 0 0 0 0 0 0 0 0 0 0 0 0 0 0 0 0 0 127 0" result="hardAlpha"/>
<feOffset dy="4"/>
<feGaussianBlur stdDeviation="2"/>
<feComposite in2="hardAlpha" operator="arithmetic" k2="-1" k3="1"/>
<feColorMatrix type="matrix" values="0 0 0 0 0 0 0 0 0 0 0 0 0 0 0 0 0 0 0.25 0"/>
<feBlend mode="normal" in2="shape" result="effect3_innerShadow_1_3"/>
</filter>
<clipPath id="clip0_1_3">
<rect width="2255" height="870" rx="50" fill="white"/>
</clipPath>
<clipPath id="clip1_1_3">
<rect width="1313" height="870" fill="white" transform="translate(942)"/>
</clipPath>
</defs>
</svg>
