<svg width="2255" height="870" viewBox="0 0 2255 870" fill="none" xmlns="http://www.w3.org/2000/svg">
<g clip-path="url(#clip0_1_3)">
<rect width="2255" height="870" rx="50" fill="#560BAD"/>
<g clip-path="url(#clip1_1_3)">
<path d="M4 528C4 529.109 5.63065 530 7.66125 530H2251.34C2253.37 530 2255 529.109 2255 528C2255 526.891 2253.37 526 2251.34 526H7.66125C5.63065 526 4 526.891 4 528Z" fill="#3F3D56"/>
<path d="M1780.02 128.941L1786.88 206.286L1886.4 169.686L1830.26 91.02L1780.02 128.941Z" fill="#A0616A"/>
<path d="M1777.03 152.505C1818 152.505 1851.22 123.261 1851.22 87.188C1851.22 51.1146 1818 21.8713 1777.03 21.8713C1736.06 21.8713 1702.85 51.1146 1702.85 87.188C1702.85 123.261 1736.06 152.505 1777.03 152.505Z" fill="#A0616A"/>
<path d="M1638.25 696.177L1650.81 795.383L1562.88 784.659L1591.59 693.016L1638.25 696.177Z" fill="#A0616A"/>
<path d="M1981 710.397L1993.56 809.604L1905.63 798.879L1934.34 707.237L1981 710.397Z" fill="#A0616A"/>
<path d="M1771.94 410.979C1770.74 410.979 1674.77 415.221 1611.37 418.03C1581.36 419.36 1558.52 442.229 1560.85 468.605L1583.51 725.407L1648.12 726.987L1649.69 520.002L1777.32 526.322L1771.94 410.979Z" fill="#2F2E41"/>
<path d="M2053.68 409.399C2053.68 409.399 2069.83 518.422 2057.27 529.482C2044.71 540.542 1650.81 520.792 1650.81 520.792C1650.81 520.792 1737.22 410.92 1752.79 407.789C1768.35 404.659 2016 393.598 2016 393.598L2053.68 409.399Z" fill="#2F2E41"/>
<path d="M1543.39 272.136C1528.39 253.664 1527.06 231.877 1540.41 223.473C1553.76 215.069 1576.74 223.233 1591.75 241.713C1597.86 249.022 1601.89 257.514 1603.5 266.476L1665.94 345.449L1630.41 367.109L1566.21 289.948C1557.1 285.701 1549.27 279.593 1543.39 272.136Z" fill="#A0616A"/>
<path d="M1776.43 177.922L1867.95 144.741L2040.22 378.588C2040.22 378.588 1919.99 402.288 1878.71 407.029C1837.44 411.769 1790.78 392.808 1790.78 392.808L1776.43 177.922Z" fill="#6C63FF"/>
<path d="M1887.69 217.423L1854.49 126.241L1897.56 155.012C1897.56 155.012 2019.58 226.114 2019.58 256.134C2019.58 286.155 2057.27 377.798 2057.27 377.798C2057.27 377.798 2099.44 408.609 2085.08 437.049C2070.73 465.49 2103.93 461.54 2107.52 482.081C2111.11 502.621 2056.37 530.272 2056.37 530.272C2056.37 530.272 2042.91 414.139 1999.84 414.139C1956.78 414.139 1887.69 217.423 1887.69 217.423Z" fill="#3F3D56"/>
<path d="M1782.86 175.591L1737.84 191.353C1737.84 191.353 1745.02 301.956 1752.2 311.436C1759.38 320.916 1784.5 371.478 1784.5 371.478V387.956C1784.5 387.956 1734.26 401.498 1736.05 409.399C1737.84 417.299 1854.49 439.419 1854.49 439.419C1854.49 439.419 1831.16 376.218 1816.8 355.677C1802.45 335.137 1782.86 175.591 1782.86 175.591Z" fill="#3F3D56"/>
<path d="M1753.99 191.353C1753.99 191.353 1701.95 185.032 1692.98 238.754C1684.01 292.475 1689.71 299.586 1689.71 299.586L1675.04 330.396L1626.58 282.995L1579.93 309.856C1579.93 309.856 1664.27 429.939 1698.36 426.779C1732.46 423.619 1782.71 336.717 1782.71 336.717L1753.99 191.353Z" fill="#3F3D56"/>
<path d="M2013.91 426.84L1987.28 758.588L1918.19 756.218C1918.19 756.218 1902.94 442.579 1902.94 437.839C1902.94 433.099 1910.12 406.238 1954.98 404.658C1999.84 403.078 2013.91 426.84 2013.91 426.84Z" fill="#2F2E41"/>
<path d="M1913.71 764.908C1913.71 764.908 1949.6 755.428 1954.98 761.748C1960.37 768.068 1990.87 771.229 1990.87 771.229L1999.84 848.651C1999.84 848.651 1974.72 864.451 1971.13 867.611C1967.54 870.771 1872.43 873.931 1870.64 854.971C1868.84 836.01 1895.76 812.31 1895.76 812.31L1913.71 764.908Z" fill="#2F2E41"/>
<path d="M1649.91 742.788C1649.91 742.788 1660.68 734.888 1664.27 757.008C1667.86 779.129 1680.42 815.47 1662.47 820.21C1644.53 824.95 1465.08 826.53 1465.08 812.31V798.089L1481.23 787.029L1513.54 782.496C1513.54 782.496 1576.34 731.727 1583.52 731.727C1590.69 731.727 1614.02 752.268 1614.02 752.268L1649.91 742.788Z" fill="#2F2E41"/>
<path d="M1850 122.621C1850 122.621 1814.11 84.6998 1799.76 87.8599C1785.4 91.0199 1794.37 95.7601 1794.37 95.7601L1758.48 60.9991C1758.48 60.9991 1729.77 51.5189 1702.85 81.5397C1702.85 81.5397 1686.7 56.259 1702.85 42.0386C1719 27.8182 1724.39 29.3983 1727.97 21.498C1731.56 13.5978 1756.69 7.27766 1756.69 7.27766C1756.69 7.27766 1755.25 -4.09368 1763.14 1.59198C1771.04 7.27764 1790.77 7.27766 1790.77 7.27766C1790.77 7.27766 1790.88 0.957485 1798.91 7.27766C1806.93 13.5978 1815.91 10.4377 1815.91 10.4377C1815.91 10.4377 1815.91 21.3736 1822.19 21.4358C1828.47 21.498 1839.23 13.5978 1841.03 19.918C1842.82 26.2382 1855.39 29.3983 1857.18 48.3588C1858.97 67.3193 1850 122.621 1850 122.621Z" fill="#2F2E41"/>
<path d="M1557.51 282.589L1352.51 407.139C1345.44 411.437 1335.71 409.866 1330.83 403.638L1273.12 329.994C1268.23 323.765 1270.02 315.201 1277.09 310.903L1482.09 186.353C1489.17 182.055 1498.89 183.626 1503.77 189.854L1561.49 263.498C1566.37 269.727 1564.59 278.291 1557.51 282.589Z" fill="white"/>
<path d="M1503.4 190.084L1561.11 263.727C1565.86 269.786 1564.13 278.076 1557.25 282.257L1456.64 343.383C1430.11 336.999 1405.9 322.66 1389.06 301.17C1378.03 287.093 1371.38 271.509 1368.84 255.651L1482.35 186.685C1489.23 182.504 1498.65 184.024 1503.4 190.084Z" fill="#E6E6E6"/>
<path d="M1343.69 411.142C1338.16 411.142 1332.72 408.833 1329.35 404.536L1271.64 330.891C1269.01 327.531 1268.02 323.465 1268.86 319.439C1269.69 315.413 1272.26 311.92 1276.07 309.602L1481.07 185.052C1488.96 180.261 1499.81 182.014 1505.25 188.956L1562.97 262.601C1565.6 265.961 1566.59 270.027 1565.75 274.053C1564.91 278.077 1562.35 281.572 1558.53 283.89L1353.53 408.44C1350.52 410.265 1347.09 411.142 1343.69 411.142ZM1490.92 185.509C1488.22 185.509 1485.5 186.205 1483.11 187.654L1278.11 312.204C1275.08 314.042 1273.05 316.814 1272.39 320.01C1271.72 323.204 1272.5 326.432 1274.59 329.095L1332.31 402.74C1336.63 408.249 1345.23 409.642 1351.49 405.838L1556.49 281.288C1559.52 279.45 1561.55 276.678 1562.22 273.482C1562.88 270.288 1562.1 267.06 1560.01 264.397L1502.3 190.752C1499.62 187.342 1495.31 185.509 1490.92 185.509Z" fill="#3F3D56"/>
<path d="M1345.17 374.371C1339.97 377.528 1338.66 383.817 1342.25 388.392C1345.83 392.966 1352.98 394.12 1358.17 390.963L1379.28 378.14C1384.47 374.984 1385.78 368.694 1382.2 364.119C1378.61 359.545 1371.47 358.391 1366.28 361.548L1345.17 374.371Z" fill="#6C63FF"/>
<path d="M1359.48 271.627C1351.28 276.607 1349.21 286.531 1354.87 293.749C1360.52 300.967 1371.79 302.786 1379.99 297.806L1412.82 277.859C1421.02 272.878 1423.09 262.955 1417.43 255.737C1411.78 248.52 1400.5 246.699 1392.31 251.68L1359.48 271.627Z" fill="#6C63FF"/>
<path d="M1552.6 293.586H1303.54C1294.94 293.586 1287.95 287.429 1287.95 279.862V190.387C1287.95 182.819 1294.94 176.663 1303.54 176.663H1552.6C1561.2 176.663 1568.19 182.819 1568.19 190.387V279.862C1568.19 287.429 1561.2 293.586 1552.6 293.586Z" fill="white"/>
<path d="M1567.73 190.387V279.861C1567.73 287.224 1560.97 293.183 1552.6 293.183H1430.37C1412.65 274.66 1401.97 250.752 1401.97 224.641C1401.97 207.538 1406.55 191.387 1414.69 177.066H1552.6C1560.97 177.066 1567.73 183.025 1567.73 190.387Z" fill="#E6E6E6"/>
<path d="M1552.6 295.166H1303.54C1293.95 295.166 1286.15 288.301 1286.15 279.862V190.386C1286.15 181.947 1293.95 175.083 1303.54 175.083H1552.6C1562.19 175.083 1569.99 181.947 1569.99 190.386V279.862C1569.99 288.301 1562.19 295.166 1552.6 295.166ZM1303.54 178.243C1295.93 178.243 1289.74 183.69 1289.74 190.386V279.862C1289.74 286.559 1295.93 292.006 1303.54 292.006H1552.6C1560.21 292.006 1566.4 286.559 1566.4 279.862V190.386C1566.4 183.69 1560.21 178.243 1552.6 178.243H1303.54Z" fill="#3F3D56"/>
<path d="M1318.63 262.944C1312.32 262.944 1307.18 267.466 1307.18 273.024C1307.18 278.581 1312.32 283.103 1318.63 283.103H1344.27C1350.58 283.103 1355.72 278.581 1355.72 273.024C1355.72 267.466 1350.58 262.944 1344.27 262.944H1318.63Z" fill="#6C63FF"/>
<path d="M1396.68 185.533C1386.72 185.533 1378.61 192.667 1378.61 201.436C1378.61 210.206 1386.72 217.339 1396.68 217.339H1436.57C1446.53 217.339 1454.63 210.206 1454.63 201.436C1454.63 192.667 1446.53 185.533 1436.57 185.533H1396.68Z" fill="#6C63FF"/>
<path d="M1760.77 603.274H1511.7C1503.11 603.274 1496.11 597.118 1496.11 589.55V500.075C1496.11 492.507 1503.11 486.351 1511.7 486.351H1760.77C1769.36 486.351 1776.36 492.507 1776.36 500.075V589.55C1776.36 597.118 1769.36 603.274 1760.77 603.274Z" fill="white"/>
<path d="M1775.9 500.075V589.55C1775.9 596.912 1769.13 602.871 1760.77 602.871H1638.53C1620.81 584.349 1610.13 560.44 1610.13 534.33C1610.13 517.227 1614.71 501.075 1622.85 486.754H1760.77C1769.13 486.754 1775.9 492.713 1775.9 500.075Z" fill="#E6E6E6"/>
<path d="M1760.77 604.854H1511.7C1502.12 604.854 1494.32 597.989 1494.32 589.551V500.075C1494.32 491.636 1502.12 484.771 1511.7 484.771H1760.77C1770.35 484.771 1778.15 491.636 1778.15 500.075V589.551C1778.15 597.989 1770.35 604.854 1760.77 604.854ZM1511.7 487.931C1504.1 487.931 1497.91 493.378 1497.91 500.075V589.551C1497.91 596.247 1504.1 601.694 1511.7 601.694H1760.77C1768.37 601.694 1774.56 596.247 1774.56 589.551V500.075C1774.56 493.378 1768.37 487.931 1760.77 487.931H1511.7Z" fill="#3F3D56"/>
<path d="M1526.79 572.632C1520.48 572.632 1515.35 577.154 1515.35 582.712C1515.35 588.27 1520.48 592.792 1526.79 592.792H1552.44C1558.75 592.792 1563.88 588.27 1563.88 582.712C1563.88 577.154 1558.75 572.632 1552.44 572.632H1526.79Z" fill="#6C63FF"/>
<path d="M1604.84 495.221C1594.88 495.221 1586.78 502.356 1586.78 511.125C1586.78 519.894 1594.88 527.028 1604.84 527.028H1644.73C1654.69 527.028 1662.79 519.894 1662.79 511.125C1662.79 502.356 1654.69 495.221 1644.73 495.221H1604.84Z" fill="#6C63FF"/>
<path d="M1777.66 523.021C1754.79 533.508 1730.1 531.617 1722.52 518.798C1714.94 505.979 1727.35 487.09 1750.23 476.601C1759.31 472.301 1769.42 469.977 1779.73 469.824L1877.29 426.466L1896.66 460.478L1800.89 505.628C1794.84 512.976 1786.87 518.94 1777.66 523.021Z" fill="#A0616A"/>
<path d="M1888.58 153.432C1888.58 153.432 1989.08 148.692 2010.61 196.093C2032.15 243.494 2050.09 398.338 2050.09 398.338L1831.16 503.212L1793.47 452.06L1940.63 350.937L1888.58 153.432Z" fill="#3F3D56"/>
</g>
<line x1="0.00212314" y1="527" x2="942.002" y2="528" stroke="#3F3D56" stroke-width="4"/>
<g filter="url(#filter0_dddii_1_3)">
<path d="M156.406 245.091H170.213L217.706 359.125H218.856L266.349 245.091H280.156V376H268.906V270.339H267.883L223.714 376H212.848L168.679 270.339H167.656V376H156.406V245.091ZM320.522 412.818C318.263 412.818 316.154 412.605 314.194 412.179C312.233 411.753 310.678 411.284 309.527 410.773L312.596 400.737C316.473 401.93 319.925 402.357 322.951 402.016C325.976 401.717 328.661 400.354 331.005 397.925C333.348 395.538 335.436 391.874 337.269 386.93L340.848 376.959L304.733 277.818H317.07L346.218 360.979H347.113L376.26 277.818H388.597L347.049 391.533C345.301 396.263 343.15 400.205 340.593 403.358C338.036 406.554 335.074 408.919 331.708 410.453C328.384 412.03 324.655 412.818 320.522 412.818ZM463.847 376V245.091H506.099C515.388 245.091 523.144 246.881 529.366 250.46C535.63 253.997 540.339 258.812 543.492 264.906C546.688 271 548.286 277.861 548.286 285.489C548.286 293.116 546.71 299.999 543.556 306.135C540.403 312.229 535.715 317.065 529.494 320.645C523.272 324.182 515.538 325.95 506.29 325.95H473.052V315.212H505.971C512.832 315.212 518.521 313.933 523.038 311.376C527.555 308.777 530.921 305.24 533.137 300.766C535.396 296.291 536.525 291.199 536.525 285.489C536.525 279.778 535.396 274.686 533.137 270.212C530.921 265.737 527.533 262.222 522.974 259.665C518.457 257.108 512.725 255.83 505.779 255.83H475.8V376H463.847ZM611.088 378.045C602.608 378.045 595.108 375.893 588.588 371.589C582.111 367.286 577.04 361.341 573.375 353.756C569.71 346.128 567.878 337.328 567.878 327.357C567.878 317.3 569.71 308.457 573.375 300.83C577.04 293.159 582.111 287.193 588.588 282.932C595.108 278.628 602.608 276.476 611.088 276.476C619.568 276.476 627.047 278.628 633.524 282.932C640.001 287.236 645.072 293.202 648.737 300.83C652.445 308.457 654.298 317.3 654.298 327.357C654.298 337.328 652.466 346.128 648.801 353.756C645.136 361.341 640.044 367.286 633.524 371.589C627.047 375.893 619.568 378.045 611.088 378.045ZM611.088 367.626C617.906 367.626 623.68 365.794 628.411 362.129C633.141 358.464 636.72 353.585 639.149 347.491C641.621 341.398 642.857 334.686 642.857 327.357C642.857 320.027 641.621 313.294 639.149 307.158C636.72 301.021 633.141 296.099 628.411 292.392C623.68 288.685 617.906 286.831 611.088 286.831C604.313 286.831 598.538 288.685 593.766 292.392C589.036 296.099 585.435 301.021 582.963 307.158C580.534 313.294 579.32 320.027 579.32 327.357C579.32 334.686 580.534 341.398 582.963 347.491C585.435 353.585 589.036 358.464 593.766 362.129C598.496 365.794 604.27 367.626 611.088 367.626ZM679.275 376V277.818H690.333V292.903H691.164C693.125 287.96 696.534 283.976 701.392 280.95C706.292 277.882 711.832 276.348 718.011 276.348C718.949 276.348 719.993 276.369 721.143 276.412C722.294 276.455 723.252 276.497 724.02 276.54V288.109C723.508 288.024 722.613 287.896 721.335 287.726C720.056 287.555 718.672 287.47 717.18 287.47C712.066 287.47 707.507 288.557 703.501 290.73C699.538 292.861 696.406 295.822 694.105 299.615C691.804 303.408 690.653 307.733 690.653 312.591V376H679.275ZM788.26 277.818V287.726H741.406V277.818H788.26ZM756.044 254.295H767.485V350.368C767.485 354.459 768.189 357.676 769.595 360.02C771.001 362.321 772.833 363.962 775.092 364.942C777.35 365.879 779.758 366.348 782.315 366.348C783.806 366.348 785.085 366.263 786.15 366.092C787.216 365.879 788.153 365.666 788.963 365.453L791.392 375.744C790.284 376.17 788.92 376.554 787.301 376.895C785.681 377.278 783.679 377.47 781.292 377.47C777.116 377.47 773.089 376.554 769.211 374.722C765.376 372.889 762.223 370.162 759.751 366.54C757.279 362.918 756.044 358.422 756.044 353.053V254.295ZM854.497 277.818V287.726H806.237V277.818H854.497ZM821.322 376V263.436C821.322 258.152 822.537 253.699 824.966 250.077C827.438 246.455 830.655 243.706 834.618 241.831C838.581 239.956 842.778 239.018 847.21 239.018C850.193 239.018 852.665 239.274 854.625 239.786C856.628 240.254 858.205 240.723 859.355 241.192L856.031 251.163C855.179 250.908 854.135 250.609 852.899 250.268C851.663 249.928 850.108 249.757 848.233 249.757C843.29 249.757 839.476 251.142 836.791 253.912C834.107 256.682 832.764 260.645 832.764 265.801L832.7 376H821.322ZM911.322 378.045C902.842 378.045 895.342 375.893 888.822 371.589C882.345 367.286 877.274 361.341 873.609 353.756C869.945 346.128 868.112 337.328 868.112 327.357C868.112 317.3 869.945 308.457 873.609 300.83C877.274 293.159 882.345 287.193 888.822 282.932C895.342 278.628 902.842 276.476 911.322 276.476C919.803 276.476 927.281 278.628 933.759 282.932C940.236 287.236 945.307 293.202 948.972 300.83C952.679 308.457 954.533 317.3 954.533 327.357C954.533 337.328 952.7 346.128 949.036 353.756C945.371 361.341 940.278 367.286 933.759 371.589C927.281 375.893 919.803 378.045 911.322 378.045ZM911.322 367.626C918.141 367.626 923.915 365.794 928.645 362.129C933.375 358.464 936.955 353.585 939.384 347.491C941.855 341.398 943.091 334.686 943.091 327.357C943.091 320.027 941.855 313.294 939.384 307.158C936.955 301.021 933.375 296.099 928.645 292.392C923.915 288.685 918.141 286.831 911.322 286.831C904.547 286.831 898.773 288.685 894 292.392C889.27 296.099 885.669 301.021 883.197 307.158C880.768 313.294 879.554 320.027 879.554 327.357C879.554 334.686 880.768 341.398 883.197 347.491C885.669 353.585 889.27 358.464 894 362.129C898.73 365.794 904.504 367.626 911.322 367.626ZM990.887 245.091V376H979.51V245.091H990.887ZM1021.12 376V277.818H1032.56V376H1021.12ZM1026.94 260.943C1024.59 260.943 1022.59 260.155 1020.93 258.578C1019.27 256.959 1018.44 255.02 1018.44 252.761C1018.44 250.503 1019.27 248.585 1020.93 247.009C1022.59 245.389 1024.59 244.58 1026.94 244.58C1029.28 244.58 1031.29 245.389 1032.95 247.009C1034.61 248.585 1035.44 250.503 1035.44 252.761C1035.44 255.02 1034.61 256.959 1032.95 258.578C1031.29 260.155 1029.28 260.943 1026.94 260.943ZM1100.81 378.045C1092.33 378.045 1084.83 375.893 1078.31 371.589C1071.84 367.286 1066.77 361.341 1063.1 353.756C1059.44 346.128 1057.6 337.328 1057.6 327.357C1057.6 317.3 1059.44 308.457 1063.1 300.83C1066.77 293.159 1071.84 287.193 1078.31 282.932C1084.83 278.628 1092.33 276.476 1100.81 276.476C1109.29 276.476 1116.77 278.628 1123.25 282.932C1129.73 287.236 1134.8 293.202 1138.46 300.83C1142.17 308.457 1144.02 317.3 1144.02 327.357C1144.02 337.328 1142.19 346.128 1138.53 353.756C1134.86 361.341 1129.77 367.286 1123.25 371.589C1116.77 375.893 1109.29 378.045 1100.81 378.045ZM1100.81 367.626C1107.63 367.626 1113.41 365.794 1118.14 362.129C1122.87 358.464 1126.45 353.585 1128.88 347.491C1131.35 341.398 1132.58 334.686 1132.58 327.357C1132.58 320.027 1131.35 313.294 1128.88 307.158C1126.45 301.021 1122.87 296.099 1118.14 292.392C1113.41 288.685 1107.63 286.831 1100.81 286.831C1094.04 286.831 1088.26 288.685 1083.49 292.392C1078.76 296.099 1075.16 301.021 1072.69 307.158C1070.26 313.294 1069.05 320.027 1069.05 327.357C1069.05 334.686 1070.26 341.398 1072.69 347.491C1075.16 353.585 1078.76 358.464 1083.49 362.129C1088.22 365.794 1094 367.626 1100.81 367.626Z" fill="white"/>
</g>
<g filter="url(#filter1_bdi_1_3)">
<rect x="417" y="624" width="458" height="139" rx="50" fill="#F72585"/>
</g>
<path d="M806.715 663.833H831.507M831.507 663.833V688.833M831.507 663.833L773.66 722.167" stroke="white" stroke-width="1.5" stroke-linecap="round" stroke-linejoin="round"/>
<path d="M450.059 715.795C446.811 715.795 443.953 714.942 441.483 713.235C439.014 711.512 437.084 709.158 435.691 706.175C434.316 703.192 433.628 699.812 433.628 696.033C433.628 692.255 434.324 688.874 435.716 685.891C437.108 682.908 439.039 680.555 441.508 678.832C443.977 677.108 446.82 676.246 450.035 676.246C452.454 676.246 454.658 676.744 456.647 677.738C458.652 678.732 460.309 680.116 461.618 681.889C462.944 683.662 463.789 685.717 464.154 688.054H461.071C460.574 685.469 459.331 683.331 457.343 681.641C455.371 679.934 452.943 679.08 450.059 679.08C447.474 679.08 445.171 679.809 443.149 681.268C441.127 682.71 439.536 684.706 438.376 687.259C437.216 689.794 436.636 692.702 436.636 695.984C436.636 699.215 437.2 702.115 438.326 704.684C439.453 707.236 441.028 709.258 443.049 710.749C445.071 712.241 447.408 712.987 450.059 712.987C451.932 712.987 453.639 712.614 455.18 711.868C456.738 711.122 458.039 710.062 459.083 708.686C460.127 707.311 460.815 705.703 461.146 703.864H464.228C463.864 706.217 463.035 708.288 461.743 710.078C460.45 711.868 458.801 713.268 456.796 714.279C454.791 715.29 452.545 715.795 450.059 715.795ZM477.602 664.091V715H474.569V664.091H477.602ZM490.304 715V676.818H493.312V715H490.304ZM491.821 670.057C491.158 670.057 490.578 669.825 490.081 669.361C489.6 668.897 489.36 668.333 489.36 667.67C489.36 667.008 489.6 666.444 490.081 665.98C490.561 665.516 491.141 665.284 491.821 665.284C492.484 665.284 493.055 665.516 493.536 665.98C494.033 666.444 494.282 667.008 494.282 667.67C494.282 668.333 494.041 668.897 493.561 669.361C493.08 669.825 492.5 670.057 491.821 670.057ZM520.333 715.795C517.085 715.795 514.226 714.942 511.757 713.235C509.288 711.512 507.357 709.158 505.965 706.175C504.589 703.192 503.902 699.812 503.902 696.033C503.902 692.255 504.598 688.874 505.99 685.891C507.382 682.908 509.312 680.555 511.782 678.832C514.251 677.108 517.093 676.246 520.308 676.246C522.727 676.246 524.932 676.744 526.92 677.738C528.925 678.732 530.583 680.116 531.892 681.889C533.218 683.662 534.063 685.717 534.427 688.054H531.345C530.848 685.469 529.605 683.331 527.616 681.641C525.644 679.934 523.216 679.08 520.333 679.08C517.748 679.08 515.444 679.809 513.422 681.268C511.401 682.71 509.81 684.706 508.65 687.259C507.49 689.794 506.91 692.702 506.91 695.984C506.91 699.215 507.473 702.115 508.6 704.684C509.727 707.236 511.301 709.258 513.323 710.749C515.345 712.241 517.681 712.987 520.333 712.987C522.205 712.987 523.912 712.614 525.454 711.868C527.011 711.122 528.312 710.062 529.356 708.686C530.4 707.311 531.088 705.703 531.419 703.864H534.502C534.137 706.217 533.309 708.288 532.016 710.078C530.723 711.868 529.075 713.268 527.069 714.279C525.064 715.29 522.819 715.795 520.333 715.795ZM547.478 700.085L547.428 695.735H548.223L567.314 676.818H571.267L553.742 694.219L553.444 694.343L547.478 700.085ZM544.843 715V664.091H547.875V715H544.843ZM568.184 715L552.076 694.641L554.264 692.628L572.062 715H568.184ZM602.973 690.241V715H599.94V664.091H602.973V682.859H603.271C604.166 680.87 605.591 679.287 607.547 678.111C609.519 676.918 611.881 676.321 614.631 676.321C617.2 676.321 619.462 676.868 621.418 677.962C623.373 679.039 624.898 680.588 625.992 682.61C627.102 684.615 627.657 687.018 627.657 689.819V715H624.649V689.943C624.649 686.679 623.68 684.06 621.741 682.088C619.802 680.116 617.242 679.13 614.06 679.13C611.922 679.13 610.016 679.594 608.342 680.522C606.669 681.45 605.351 682.751 604.39 684.425C603.445 686.082 602.973 688.021 602.973 690.241ZM655.094 715.795C651.647 715.795 648.648 714.942 646.095 713.235C643.543 711.528 641.571 709.192 640.179 706.225C638.787 703.259 638.091 699.878 638.091 696.083C638.091 692.272 638.787 688.874 640.179 685.891C641.588 682.908 643.518 680.555 645.971 678.832C648.424 677.108 651.224 676.246 654.373 676.246C656.511 676.246 658.533 676.677 660.438 677.539C662.361 678.384 664.051 679.611 665.509 681.218C666.984 682.826 668.136 684.764 668.965 687.035C669.81 689.305 670.233 691.857 670.233 694.691V696.58H640.005V693.821H667.2C667.2 691.054 666.636 688.559 665.509 686.339C664.383 684.118 662.85 682.353 660.911 681.044C658.972 679.735 656.793 679.08 654.373 679.08C651.838 679.08 649.576 679.793 647.587 681.218C645.615 682.627 644.049 684.532 642.889 686.935C641.745 689.338 641.149 692.023 641.099 694.989V696.232C641.099 699.414 641.654 702.273 642.764 704.808C643.891 707.327 645.499 709.324 647.587 710.799C649.675 712.257 652.177 712.987 655.094 712.987C657.182 712.987 658.964 712.638 660.438 711.942C661.93 711.23 663.148 710.368 664.093 709.357C665.037 708.346 665.75 707.369 666.23 706.424L668.99 707.543C668.41 708.819 667.506 710.095 666.28 711.371C665.07 712.63 663.529 713.683 661.657 714.528C659.8 715.373 657.613 715.795 655.094 715.795ZM680.673 715V676.818H683.631V682.784H683.904C684.733 680.829 686.133 679.263 688.105 678.086C690.077 676.893 692.323 676.296 694.842 676.296C695.107 676.296 695.372 676.296 695.637 676.296C695.902 676.296 696.151 676.304 696.383 676.321V679.379C696.184 679.362 695.944 679.337 695.662 679.304C695.397 679.254 695.066 679.229 694.668 679.229C692.547 679.229 690.657 679.685 689 680.597C687.36 681.508 686.067 682.768 685.122 684.375C684.178 685.966 683.706 687.789 683.706 689.844V715H680.673ZM718.258 715.795C714.811 715.795 711.812 714.942 709.259 713.235C706.707 711.528 704.735 709.192 703.343 706.225C701.951 703.259 701.255 699.878 701.255 696.083C701.255 692.272 701.951 688.874 703.343 685.891C704.752 682.908 706.683 680.555 709.135 678.832C711.588 677.108 714.389 676.246 717.537 676.246C719.675 676.246 721.697 676.677 723.603 677.539C725.525 678.384 727.215 679.611 728.674 681.218C730.148 682.826 731.3 684.764 732.129 687.035C732.974 689.305 733.397 691.857 733.397 694.691V696.58H703.169V693.821H730.364C730.364 691.054 729.8 688.559 728.674 686.339C727.547 684.118 726.014 682.353 724.075 681.044C722.136 679.735 719.957 679.08 717.537 679.08C715.002 679.08 712.74 679.793 710.751 681.218C708.779 682.627 707.213 684.532 706.053 686.935C704.909 689.338 704.313 692.023 704.263 694.989V696.232C704.263 699.414 704.818 702.273 705.929 704.808C707.055 707.327 708.663 709.324 710.751 710.799C712.839 712.257 715.341 712.987 718.258 712.987C720.346 712.987 722.128 712.638 723.603 711.942C725.094 711.23 726.312 710.368 727.257 709.357C728.201 708.346 728.914 707.369 729.394 706.424L732.154 707.543C731.574 708.819 730.67 710.095 729.444 711.371C728.234 712.63 726.693 713.683 724.821 714.528C722.965 715.373 720.777 715.795 718.258 715.795Z" fill="white"/>
</g>
<defs>
<filter id="filter0_dddii_1_3" x="152.406" y="239.018" width="995.619" height="181.8" filterUnits="userSpaceOnUse" color-interpolation-filters="sRGB">
<feFlood flood-opacity="0" result="BackgroundImageFix"/>
<feColorMatrix in="SourceAlpha" type="matrix" values="0 0 0 0 0 0 0 0 0 0 0 0 0 0 0 0 0 0 127 0" result="hardAlpha"/>
<feOffset dy="4"/>
<feGaussianBlur stdDeviation="2"/>
<feComposite in2="hardAlpha" operator="out"/>
<feColorMatrix type="matrix" values="0 0 0 0 0 0 0 0 0 0 0 0 0 0 0 0 0 0 0.25 0"/>
<feBlend mode="normal" in2="BackgroundImageFix" result="effect1_dropShadow_1_3"/>
<feColorMatrix in="SourceAlpha" type="matrix" values="0 0 0 0 0 0 0 0 0 0 0 0 0 0 0 0 0 0 127 0" result="hardAlpha"/>
<feOffset dy="4"/>
<feGaussianBlur stdDeviation="2"/>
<feComposite in2="hardAlpha" operator="out"/>
<feColorMatrix type="matrix" values="0 0 0 0 0 0 0 0 0 0 0 0 0 0 0 0 0 0 0.25 0"/>
<feBlend mode="normal" in2="effect1_dropShadow_1_3" result="effect2_dropShadow_1_3"/>
<feColorMatrix in="SourceAlpha" type="matrix" values="0 0 0 0 0 0 0 0 0 0 0 0 0 0 0 0 0 0 127 0" result="hardAlpha"/>
<feOffset dy="4"/>
<feGaussianBlur stdDeviation="2"/>
<feComposite in2="hardAlpha" operator="out"/>
<feColorMatrix type="matrix" values="0 0 0 0 0 0 0 0 0 0 0 0 0 0 0 0 0 0 0.25 0"/>
<feBlend mode="normal" in2="effect2_dropShadow_1_3" result="effect3_dropShadow_1_3"/>
<feBlend mode="normal" in="SourceGraphic" in2="effect3_dropShadow_1_3" result="shape"/>
<feColorMatrix in="SourceAlpha" type="matrix" values="0 0 0 0 0 0 0 0 0 0 0 0 0 0 0 0 0 0 127 0" result="hardAlpha"/>
<feOffset dy="4"/>
<feGaussianBlur stdDeviation="2"/>
<feComposite in2="hardAlpha" operator="arithmetic" k2="-1" k3="1"/>
<feColorMatrix type="matrix" values="0 0 0 0 0 0 0 0 0 0 0 0 0 0 0 0 0 0 0.25 0"/>
<feBlend mode="normal" in2="shape" result="effect4_innerShadow_1_3"/>
<feColorMatrix in="SourceAlpha" type="matrix" values="0 0 0 0 0 0 0 0 0 0 0 0 0 0 0 0 0 0 127 0" result="hardAlpha"/>
<feOffset dy="4"/>
<feGaussianBlur stdDeviation="2"/>
<feComposite in2="hardAlpha" operator="arithmetic" k2="-1" k3="1"/>
<feColorMatrix type="matrix" values="0 0 0 0 0 0 0 0 0 0 0 0 0 0 0 0 0 0 0.25 0"/>
<feBlend mode="normal" in2="effect4_innerShadow_1_3" result="effect5_innerShadow_1_3"/>
</filter>
<filter id="filter1_bdi_1_3" x="413" y="620" width="466" height="151" filterUnits="userSpaceOnUse" color-interpolation-filters="sRGB">
<feFlood flood-opacity="0" result="BackgroundImageFix"/>
<feGaussianBlur in="BackgroundImageFix" stdDeviation="2"/>
<feComposite in2="SourceAlpha" operator="in" result="effect1_backgroundBlur_1_3"/>
<feColorMatrix in="SourceAlpha" type="matrix" values="0 0 0 0 0 0 0 0 0 0 0 0 0 0 0 0 0 0 127 0" result="hardAlpha"/>
<feOffset dy="4"/>
<feGaussianBlur stdDeviation="2"/>
<feComposite in2="hardAlpha" operator="out"/>
<feColorMatrix type="matrix" values="0 0 0 0 0 0 0 0 0 0 0 0 0 0 0 0 0 0 0.25 0"/>
<feBlend mode="normal" in2="effect1_backgroundBlur_1_3" result="effect2_dropShadow_1_3"/>
<feBlend mode="normal" in="SourceGraphic" in2="effect2_dropShadow_1_3" result="shape"/>
<feColorMatrix in="SourceAlpha" type="matrix" values="0 0 0 0 0 0 0 0 0 0 0 0 0 0 0 0 0 0 127 0" result="hardAlpha"/>
<feOffset dy="4"/>
<feGaussianBlur stdDeviation="2"/>
<feComposite in2="hardAlpha" operator="arithmetic" k2="-1" k3="1"/>
<feColorMatrix type="matrix" values="0 0 0 0 0 0 0 0 0 0 0 0 0 0 0 0 0 0 0.25 0"/>
<feBlend mode="normal" in2="shape" result="effect3_innerShadow_1_3"/>
</filter>
<clipPath id="clip0_1_3">
<rect width="2255" height="870" rx="50" fill="white"/>
</clipPath>
<clipPath id="clip1_1_3">
<rect width="1313" height="870" fill="white" transform="translate(942)"/>
</clipPath>
</defs>
</svg>
