<svg width="1292" height="1822" viewBox="0 0 1292 1822" fill="none" xmlns="http://www.w3.org/2000/svg">
<g clip-path="url(#clip0_17_58)">
<line x1="-15" y1="1221" x2="1303.02" y2="1221" stroke="#3F3D56" stroke-width="4"/>
<path d="M107.412 979.091H151.645L182.071 1053.24H183.605L214.031 979.091H258.264V1110H223.492V1034.32H222.469L193.321 1108.98H172.355L143.208 1033.81H142.185V1110H107.412V979.091ZM297.096 1146.82C293.048 1146.82 289.191 1146.5 285.526 1145.86C281.862 1145.26 278.644 1144.43 275.874 1143.37L283.545 1118.31C286.443 1119.33 289.085 1119.99 291.471 1120.29C293.9 1120.59 295.967 1120.42 297.671 1119.78C299.419 1119.14 300.676 1117.93 301.443 1116.14L302.21 1114.35L267.693 1011.82H304.511L320.363 1079.83H321.386L337.494 1011.82H374.568L338.772 1118.18C336.982 1123.59 334.383 1128.45 330.974 1132.76C327.607 1137.1 323.176 1140.53 317.678 1143.05C312.181 1145.56 305.32 1146.82 297.096 1146.82ZM419.951 1110V979.091H476.457C486.173 979.091 494.674 981.009 501.961 984.844C509.248 988.679 514.916 994.07 518.964 1001.02C523.012 1007.96 525.036 1016.08 525.036 1025.37C525.036 1034.74 522.948 1042.86 518.772 1049.72C514.639 1056.58 508.822 1061.87 501.322 1065.58C493.865 1069.28 485.15 1071.14 475.178 1071.14H441.428V1043.52H468.019C472.195 1043.52 475.754 1042.8 478.694 1041.35C481.677 1039.86 483.957 1037.75 485.534 1035.02C487.153 1032.29 487.963 1029.08 487.963 1025.37C487.963 1021.62 487.153 1018.42 485.534 1015.78C483.957 1013.1 481.677 1011.05 478.694 1009.64C475.754 1008.2 472.195 1007.47 468.019 1007.47H455.491V1110H419.951ZM583.779 1111.79C573.126 1111.79 564.007 1109.68 556.421 1105.46C548.836 1101.2 543.019 1095.28 538.971 1087.69C534.923 1080.06 532.899 1071.22 532.899 1061.16C532.899 1051.11 534.923 1042.29 538.971 1034.7C543.019 1027.07 548.836 1021.15 556.421 1016.93C564.007 1012.67 573.126 1010.54 583.779 1010.54C594.433 1010.54 603.552 1012.67 611.137 1016.93C618.722 1021.15 624.539 1027.07 628.588 1034.7C632.636 1042.29 634.66 1051.11 634.66 1061.16C634.66 1071.22 632.636 1080.06 628.588 1087.69C624.539 1095.28 618.722 1101.2 611.137 1105.46C603.552 1109.68 594.433 1111.79 583.779 1111.79ZM584.035 1085.71C587.018 1085.71 589.596 1084.71 591.769 1082.71C593.943 1080.7 595.626 1077.85 596.819 1074.14C598.012 1070.43 598.609 1066.02 598.609 1060.91C598.609 1055.75 598.012 1051.34 596.819 1047.68C595.626 1043.97 593.943 1041.12 591.769 1039.11C589.596 1037.11 587.018 1036.11 584.035 1036.11C580.882 1036.11 578.176 1037.11 575.917 1039.11C573.659 1041.12 571.933 1043.97 570.74 1047.68C569.546 1051.34 568.95 1055.75 568.95 1060.91C568.95 1066.02 569.546 1070.43 570.74 1074.14C571.933 1077.85 573.659 1080.7 575.917 1082.71C578.176 1084.71 580.882 1085.71 584.035 1085.71ZM648.978 1110V1011.82H683.24V1030.48H684.262C686.052 1023.58 688.886 1018.53 692.764 1015.33C696.684 1012.14 701.265 1010.54 706.507 1010.54C708.041 1010.54 709.553 1010.67 711.045 1010.92C712.579 1011.14 714.049 1011.46 715.455 1011.88V1041.99C713.708 1041.39 711.556 1040.94 708.999 1040.65C706.443 1040.35 704.248 1040.2 702.416 1040.2C698.964 1040.2 695.853 1040.99 693.083 1042.56C690.356 1044.1 688.204 1046.27 686.627 1049.08C685.051 1051.85 684.262 1055.11 684.262 1058.86V1110H648.978ZM789.619 1011.82V1037.39H724.932V1011.82H789.619ZM737.46 988.295H772.744V1078.42C772.744 1079.79 772.979 1080.94 773.447 1081.88C773.916 1082.77 774.64 1083.45 775.621 1083.92C776.601 1084.35 777.858 1084.56 779.392 1084.56C780.457 1084.56 781.693 1084.43 783.099 1084.18C784.548 1083.92 785.613 1083.71 786.295 1083.54L791.409 1108.34C789.832 1108.81 787.574 1109.38 784.633 1110.06C781.736 1110.75 778.284 1111.19 774.278 1111.41C766.182 1111.83 759.385 1111 753.888 1108.91C748.39 1106.78 744.257 1103.44 741.487 1098.88C738.717 1094.32 737.375 1088.61 737.46 1081.75V988.295ZM862.824 1011.82V1037.39H797.114V1011.82H862.824ZM809.642 1110V1009.01C809.642 1000.91 811.091 994.197 813.989 988.871C816.887 983.544 820.977 979.56 826.262 976.918C831.546 974.276 837.767 972.955 844.926 972.955C849.401 972.955 853.747 973.295 857.966 973.977C862.227 974.659 865.381 975.256 867.426 975.767L862.313 1001.08C861.034 1000.7 859.543 1000.4 857.838 1000.18C856.134 999.929 854.642 999.801 853.364 999.801C850.04 999.801 847.803 1000.5 846.652 1001.91C845.502 1003.32 844.926 1005.17 844.926 1007.47V1110H809.642ZM920.752 1111.79C910.099 1111.79 900.979 1109.68 893.394 1105.46C885.809 1101.2 879.992 1095.28 875.944 1087.69C871.895 1080.06 869.871 1071.22 869.871 1061.16C869.871 1051.11 871.895 1042.29 875.944 1034.7C879.992 1027.07 885.809 1021.15 893.394 1016.93C900.979 1012.67 910.099 1010.54 920.752 1010.54C931.405 1010.54 940.525 1012.67 948.11 1016.93C955.695 1021.15 961.512 1027.07 965.56 1034.7C969.608 1042.29 971.633 1051.11 971.633 1061.16C971.633 1071.22 969.608 1080.06 965.56 1087.69C961.512 1095.28 955.695 1101.2 948.11 1105.46C940.525 1109.68 931.405 1111.79 920.752 1111.79ZM921.008 1085.71C923.991 1085.71 926.569 1084.71 928.742 1082.71C930.915 1080.7 932.599 1077.85 933.792 1074.14C934.985 1070.43 935.582 1066.02 935.582 1060.91C935.582 1055.75 934.985 1051.34 933.792 1047.68C932.599 1043.97 930.915 1041.12 928.742 1039.11C926.569 1037.11 923.991 1036.11 921.008 1036.11C917.854 1036.11 915.148 1037.11 912.89 1039.11C910.631 1041.12 908.905 1043.97 907.712 1047.68C906.519 1051.34 905.922 1055.75 905.922 1060.91C905.922 1066.02 906.519 1070.43 907.712 1074.14C908.905 1077.85 910.631 1080.7 912.89 1082.71C915.148 1084.71 917.854 1085.71 921.008 1085.71ZM1021.23 979.091V1110H985.951V979.091H1021.23ZM1039.21 1110V1011.82H1074.5V1110H1039.21ZM1056.85 1001.59C1052.08 1001.59 1047.99 1000.01 1044.58 996.861C1041.17 993.707 1039.47 989.915 1039.47 985.483C1039.47 981.051 1041.17 977.259 1044.58 974.105C1047.99 970.952 1052.08 969.375 1056.85 969.375C1061.67 969.375 1065.76 970.952 1069.13 974.105C1072.54 977.259 1074.24 981.051 1074.24 985.483C1074.24 989.915 1072.54 993.707 1069.13 996.861C1065.76 1000.01 1061.67 1001.59 1056.85 1001.59ZM1139.78 1111.79C1129.12 1111.79 1120 1109.68 1112.42 1105.46C1104.83 1101.2 1099.02 1095.28 1094.97 1087.69C1090.92 1080.06 1088.89 1071.22 1088.89 1061.16C1088.89 1051.11 1090.92 1042.29 1094.97 1034.7C1099.02 1027.07 1104.83 1021.15 1112.42 1016.93C1120 1012.67 1129.12 1010.54 1139.78 1010.54C1150.43 1010.54 1159.55 1012.67 1167.13 1016.93C1174.72 1021.15 1180.54 1027.07 1184.58 1034.7C1188.63 1042.29 1190.66 1051.11 1190.66 1061.16C1190.66 1071.22 1188.63 1080.06 1184.58 1087.69C1180.54 1095.28 1174.72 1101.2 1167.13 1105.46C1159.55 1109.68 1150.43 1111.79 1139.78 1111.79ZM1140.03 1085.71C1143.01 1085.71 1145.59 1084.71 1147.77 1082.71C1149.94 1080.7 1151.62 1077.85 1152.82 1074.14C1154.01 1070.43 1154.6 1066.02 1154.6 1060.91C1154.6 1055.75 1154.01 1051.34 1152.82 1047.68C1151.62 1043.97 1149.94 1041.12 1147.77 1039.11C1145.59 1037.11 1143.01 1036.11 1140.03 1036.11C1136.88 1036.11 1134.17 1037.11 1131.91 1039.11C1129.65 1041.12 1127.93 1043.97 1126.74 1047.68C1125.54 1051.34 1124.95 1055.75 1124.95 1060.91C1124.95 1066.02 1125.54 1070.43 1126.74 1074.14C1127.93 1077.85 1129.65 1080.7 1131.91 1082.71C1134.17 1084.71 1136.88 1085.71 1140.03 1085.71Z" fill="#270054"/>
<rect x="418" y="1475" width="458" height="139" rx="50" fill="#F72585"/>
<path d="M829.388 1527.29L846.468 1545.26M846.468 1545.26L828.347 1562.48M846.468 1545.26L764.334 1543.51" stroke="white" stroke-width="12" stroke-linecap="round" stroke-linejoin="round"/>
<path d="M438.046 1567.72C434.019 1567.72 430.564 1566.89 427.68 1565.24C424.814 1563.58 422.609 1561.27 421.068 1558.32C419.527 1555.36 418.756 1551.93 418.756 1548.03C418.756 1544.12 419.527 1540.69 421.068 1537.74C422.626 1534.78 424.838 1532.46 427.705 1530.81C430.589 1529.15 434.028 1528.32 438.021 1528.32C441.551 1528.32 444.625 1528.96 447.244 1530.24C449.879 1531.51 451.934 1533.32 453.408 1535.65C454.9 1537.97 455.687 1540.7 455.77 1543.83H444.41C444.178 1541.88 443.515 1540.34 442.421 1539.23C441.344 1538.12 439.935 1537.57 438.195 1537.57C436.787 1537.57 435.552 1537.97 434.492 1538.76C433.431 1539.54 432.602 1540.7 432.006 1542.24C431.426 1543.77 431.136 1545.66 431.136 1547.91C431.136 1550.16 431.426 1552.07 432.006 1553.63C432.602 1555.17 433.431 1556.34 434.492 1557.13C435.552 1557.91 436.787 1558.3 438.195 1558.3C439.322 1558.3 440.317 1558.06 441.178 1557.58C442.057 1557.1 442.778 1556.39 443.341 1555.47C443.904 1554.52 444.261 1553.38 444.41 1552.04H455.77C455.654 1555.18 454.867 1557.94 453.408 1560.29C451.967 1562.64 449.937 1564.47 447.318 1565.78C444.716 1567.07 441.626 1567.72 438.046 1567.72ZM474.146 1516.09V1567H461.991V1516.09H474.146ZM481.883 1567V1528.82H494.039V1567H481.883ZM487.973 1524.37C486.267 1524.37 484.8 1523.81 483.574 1522.68C482.347 1521.53 481.734 1520.16 481.734 1518.55C481.734 1516.96 482.347 1515.6 483.574 1514.48C484.8 1513.33 486.267 1512.76 487.973 1512.76C489.697 1512.76 491.164 1513.33 492.373 1514.48C493.6 1515.6 494.213 1516.96 494.213 1518.55C494.213 1520.16 493.6 1521.53 492.373 1522.68C491.164 1523.81 489.697 1524.37 487.973 1524.37ZM519.599 1567.72C515.572 1567.72 512.117 1566.89 509.233 1565.24C506.366 1563.58 504.162 1561.27 502.621 1558.32C501.08 1555.36 500.309 1551.93 500.309 1548.03C500.309 1544.12 501.08 1540.69 502.621 1537.74C504.179 1534.78 506.391 1532.46 509.258 1530.81C512.142 1529.15 515.58 1528.32 519.574 1528.32C523.104 1528.32 526.178 1528.96 528.796 1530.24C531.431 1531.51 533.486 1533.32 534.961 1535.65C536.453 1537.97 537.24 1540.7 537.323 1543.83H525.963C525.731 1541.88 525.068 1540.34 523.974 1539.23C522.897 1538.12 521.488 1537.57 519.748 1537.57C518.34 1537.57 517.105 1537.97 516.044 1538.76C514.984 1539.54 514.155 1540.7 513.559 1542.24C512.978 1543.77 512.688 1545.66 512.688 1547.91C512.688 1550.16 512.978 1552.07 513.559 1553.63C514.155 1555.17 514.984 1556.34 516.044 1557.13C517.105 1557.91 518.34 1558.3 519.748 1558.3C520.875 1558.3 521.869 1558.06 522.731 1557.58C523.609 1557.1 524.33 1556.39 524.894 1555.47C525.457 1554.52 525.813 1553.38 525.963 1552.04H537.323C537.207 1555.18 536.42 1557.94 534.961 1560.29C533.519 1562.64 531.489 1564.47 528.871 1565.78C526.269 1567.07 523.179 1567.72 519.599 1567.72ZM554.506 1556.98L554.555 1542.49H556.246L566.984 1528.82H580.756L564.797 1548.41H561.59L554.506 1556.98ZM543.543 1567V1516.09H555.699V1567H543.543ZM567.258 1567L557.265 1551.14L565.269 1542.51L581.303 1567H567.258ZM612.301 1545.22V1567H600.145V1516.09H611.903V1535.83H612.325C613.187 1533.47 614.596 1531.64 616.551 1530.31C618.523 1528.98 620.935 1528.32 623.785 1528.32C626.47 1528.32 628.806 1528.92 630.795 1530.11C632.783 1531.29 634.325 1532.95 635.418 1535.11C636.529 1537.26 637.076 1539.78 637.059 1542.66V1567H624.903V1545.05C624.92 1542.93 624.39 1541.27 623.313 1540.08C622.235 1538.89 620.719 1538.29 618.764 1538.29C617.488 1538.29 616.361 1538.57 615.383 1539.13C614.422 1539.68 613.668 1540.47 613.121 1541.5C612.591 1542.52 612.317 1543.77 612.301 1545.22ZM662.495 1567.72C658.501 1567.72 655.054 1566.93 652.154 1565.36C649.271 1563.77 647.05 1561.51 645.492 1558.57C643.951 1555.62 643.18 1552.12 643.18 1548.06C643.18 1544.11 643.959 1540.67 645.517 1537.72C647.075 1534.75 649.271 1532.45 652.104 1530.81C654.938 1529.15 658.277 1528.32 662.122 1528.32C664.84 1528.32 667.326 1528.74 669.579 1529.59C671.833 1530.43 673.78 1531.69 675.421 1533.34C677.062 1535 678.338 1537.05 679.249 1539.48C680.161 1541.9 680.616 1544.68 680.616 1547.81V1550.84H647.431V1543.78H669.306C669.289 1542.49 668.983 1541.34 668.386 1540.33C667.79 1539.32 666.969 1538.53 665.925 1537.97C664.898 1537.39 663.713 1537.1 662.371 1537.1C661.012 1537.1 659.794 1537.4 658.717 1538.02C657.639 1538.61 656.786 1539.43 656.156 1540.48C655.526 1541.5 655.195 1542.67 655.162 1543.98V1551.17C655.162 1552.72 655.468 1554.09 656.082 1555.27C656.695 1556.43 657.565 1557.33 658.692 1557.98C659.819 1558.62 661.161 1558.95 662.719 1558.95C663.796 1558.95 664.774 1558.8 665.652 1558.5C666.53 1558.2 667.284 1557.76 667.914 1557.18C668.544 1556.6 669.016 1555.89 669.331 1555.04L680.492 1555.37C680.028 1557.87 679.009 1560.05 677.435 1561.9C675.877 1563.74 673.83 1565.18 671.295 1566.2C668.759 1567.22 665.826 1567.72 662.495 1567.72ZM686.825 1567V1528.82H698.632V1535.78H699.03C699.726 1533.26 700.861 1531.39 702.435 1530.16C704.01 1528.92 705.841 1528.3 707.929 1528.3C708.493 1528.3 709.073 1528.34 709.669 1528.42C710.266 1528.49 710.821 1528.59 711.335 1528.74V1539.31C710.755 1539.11 709.992 1538.95 709.048 1538.84C708.12 1538.72 707.291 1538.66 706.562 1538.66C705.12 1538.66 703.819 1538.99 702.659 1539.63C701.516 1540.26 700.613 1541.15 699.95 1542.29C699.303 1543.42 698.98 1544.74 698.98 1546.27V1567H686.825ZM732.153 1567.72C728.159 1567.72 724.712 1566.93 721.812 1565.36C718.929 1563.77 716.708 1561.51 715.15 1558.57C713.609 1555.62 712.839 1552.12 712.839 1548.06C712.839 1544.11 713.617 1540.67 715.175 1537.72C716.733 1534.75 718.929 1532.45 721.763 1530.81C724.596 1529.15 727.936 1528.32 731.78 1528.32C734.498 1528.32 736.984 1528.74 739.238 1529.59C741.491 1530.43 743.439 1531.69 745.079 1533.34C746.72 1535 747.996 1537.05 748.907 1539.48C749.819 1541.9 750.275 1544.68 750.275 1547.81V1550.84H717.089V1543.78H738.964C738.948 1542.49 738.641 1541.34 738.044 1540.33C737.448 1539.32 736.628 1538.53 735.584 1537.97C734.556 1537.39 733.371 1537.1 732.029 1537.1C730.67 1537.1 729.452 1537.4 728.375 1538.02C727.298 1538.61 726.444 1539.43 725.814 1540.48C725.185 1541.5 724.853 1542.67 724.82 1543.98V1551.17C724.82 1552.72 725.127 1554.09 725.74 1555.27C726.353 1556.43 727.223 1557.33 728.35 1557.98C729.477 1558.62 730.819 1558.95 732.377 1558.95C733.454 1558.95 734.432 1558.8 735.31 1558.5C736.188 1558.2 736.942 1557.76 737.572 1557.18C738.202 1556.6 738.674 1555.89 738.989 1555.04L750.15 1555.37C749.686 1557.87 748.667 1560.05 747.093 1561.9C745.535 1563.74 743.488 1565.18 740.953 1566.2C738.417 1567.22 735.484 1567.72 732.153 1567.72Z" fill="white"/>
<g clip-path="url(#clip1_17_58)">
<path d="M-948 549C-948 550.109 -946.369 551 -944.339 551H1299.34C1301.37 551 1303 550.109 1303 549C1303 547.891 1301.37 547 1299.34 547H-944.339C-946.369 547 -948 547.891 -948 549Z" fill="#3F3D56"/>
<path d="M828.015 149.941L834.882 227.286L934.401 190.686L878.262 112.02L828.015 149.941Z" fill="#A0616A"/>
<path d="M825.034 173.505C866.004 173.505 899.217 144.261 899.217 108.188C899.217 72.1146 866.004 42.8713 825.034 42.8713C784.064 42.8713 750.851 72.1146 750.851 108.188C750.851 144.261 784.064 173.505 825.034 173.505Z" fill="#A0616A"/>
<path d="M686.248 717.176L698.81 816.383L610.878 805.659L639.59 714.016L686.248 717.176Z" fill="#A0616A"/>
<path d="M1029 731.397L1041.56 830.604L953.632 819.879L982.344 728.237L1029 731.397Z" fill="#A0616A"/>
<path d="M819.94 431.979C818.739 431.979 722.774 436.221 659.371 439.03C629.362 440.36 606.519 463.229 608.847 489.605L631.515 746.407L696.118 747.987L697.693 541.002L825.324 547.322L819.94 431.979Z" fill="#2F2E41"/>
<path d="M1101.68 430.399C1101.68 430.399 1117.83 539.422 1105.27 550.482C1092.71 561.542 698.81 541.792 698.81 541.792C698.81 541.792 785.222 431.92 800.787 428.789C816.351 425.659 1064 414.598 1064 414.598L1101.68 430.399Z" fill="#2F2E41"/>
<path d="M591.393 293.136C576.393 274.664 575.058 252.877 588.411 244.473C601.764 236.069 624.744 244.233 639.747 262.713C645.855 270.022 649.887 278.514 651.503 287.476L713.939 366.449L678.407 388.109L614.209 310.948C605.097 306.701 597.274 300.593 591.393 293.136Z" fill="#A0616A"/>
<path d="M824.427 198.922L915.947 165.741L1088.22 399.588C1088.22 399.588 967.988 423.288 926.714 428.029C885.44 432.769 838.783 413.808 838.783 413.808L824.427 198.922Z" fill="#6C63FF"/>
<path d="M935.687 238.423L902.488 147.241L945.557 176.012C945.557 176.012 1067.58 247.114 1067.58 277.134C1067.58 307.155 1105.27 398.798 1105.27 398.798C1105.27 398.798 1147.44 429.609 1133.08 458.049C1118.73 486.49 1151.93 482.54 1155.52 503.081C1159.11 523.621 1104.37 551.272 1104.37 551.272C1104.37 551.272 1090.91 435.139 1047.84 435.139C1004.78 435.139 935.687 238.423 935.687 238.423Z" fill="#3F3D56"/>
<path d="M830.857 196.591L785.844 212.353C785.844 212.353 793.022 322.956 800.2 332.436C807.378 341.916 832.502 392.478 832.502 392.478V408.956C832.502 408.956 782.255 422.498 784.05 430.399C785.844 438.299 902.488 460.419 902.488 460.419C902.488 460.419 879.159 397.218 864.803 376.677C850.447 356.137 830.857 196.591 830.857 196.591Z" fill="#3F3D56"/>
<path d="M801.995 212.353C801.995 212.353 749.954 206.032 740.981 259.754C732.008 313.475 737.71 320.586 737.71 320.586L723.036 351.396L674.584 303.995L627.926 330.856C627.926 330.856 712.269 450.939 746.365 447.779C780.461 444.619 830.707 357.717 830.707 357.717L801.995 212.353Z" fill="#3F3D56"/>
<path d="M1061.91 447.84L1035.28 779.588L966.194 777.218C966.194 777.218 950.94 463.579 950.94 458.839C950.94 454.099 958.119 427.238 1002.98 425.658C1047.84 424.078 1061.91 447.84 1061.91 447.84Z" fill="#2F2E41"/>
<path d="M961.708 785.908C961.708 785.908 997.598 776.428 1002.98 782.748C1008.37 789.068 1038.87 792.229 1038.87 792.229L1047.84 869.651C1047.84 869.651 1022.72 885.451 1019.13 888.611C1015.54 891.771 920.434 894.931 918.639 875.971C916.845 857.01 943.762 833.31 943.762 833.31L961.708 785.908Z" fill="#2F2E41"/>
<path d="M697.912 763.788C697.912 763.788 708.68 755.888 712.269 778.008C715.858 800.129 728.419 836.47 710.474 841.21C692.529 845.95 513.076 847.53 513.076 833.31V819.089L529.227 808.029L561.536 803.496C561.536 803.496 624.337 752.728 631.515 752.728C638.693 752.728 662.022 773.268 662.022 773.268L697.912 763.788Z" fill="#2F2E41"/>
<path d="M898.002 143.621C898.002 143.621 862.111 105.7 847.755 108.86C833.399 112.02 842.372 116.76 842.372 116.76L806.481 81.9991C806.481 81.9991 777.769 72.5189 750.851 102.54C750.851 102.54 734.7 77.259 750.851 63.0386C767.002 48.8182 772.385 50.3983 775.974 42.498C779.563 34.5978 804.687 28.2777 804.687 28.2777C804.687 28.2777 803.245 16.9063 811.144 22.592C819.043 28.2776 838.769 28.2777 838.769 28.2777C838.769 28.2777 838.882 21.9575 846.907 28.2777C854.933 34.5978 863.906 31.4377 863.906 31.4377C863.906 31.4377 863.906 42.3736 870.187 42.4358C876.468 42.498 887.235 34.5978 889.029 40.918C890.824 47.2382 903.386 50.3983 905.18 69.3588C906.975 88.3193 898.002 143.621 898.002 143.621Z" fill="#2F2E41"/>
<path d="M605.512 303.589L400.513 428.139C393.438 432.437 383.712 430.866 378.831 424.638L321.116 350.994C316.234 344.765 318.018 336.201 325.092 331.903L530.092 207.353C537.166 203.055 546.893 204.626 551.774 210.854L609.489 284.498C614.371 290.727 612.586 299.291 605.512 303.589Z" fill="white"/>
<path d="M551.397 211.084L609.112 284.727C613.861 290.786 612.134 299.076 605.252 303.257L504.644 364.383C478.111 357.999 453.9 343.66 437.058 322.17C426.025 308.093 419.376 292.509 416.84 276.651L530.352 207.685C537.234 203.504 546.649 205.024 551.397 211.084Z" fill="#E6E6E6"/>
<path d="M391.687 432.142C386.161 432.142 380.723 429.833 377.353 425.536L319.637 351.891C317.005 348.531 316.017 344.465 316.856 340.439C317.694 336.413 320.258 332.92 324.075 330.602L529.073 206.052C536.964 201.261 547.808 203.014 553.252 209.956L610.967 283.601C613.6 286.961 614.588 291.027 613.749 295.053C612.911 299.077 610.347 302.572 606.532 304.89L401.532 429.44C398.525 431.265 395.088 432.142 391.687 432.142ZM538.924 206.509C536.225 206.509 533.498 207.205 531.113 208.654L326.113 333.204C323.085 335.042 321.052 337.814 320.386 341.01C319.72 344.204 320.503 347.432 322.592 350.095L380.308 423.74C384.626 429.249 393.232 430.642 399.492 426.838L604.494 302.288C607.52 300.45 609.553 297.678 610.219 294.482C610.885 291.288 610.102 288.06 608.013 285.397L550.297 211.752C547.624 208.342 543.308 206.509 538.924 206.509Z" fill="#3F3D56"/>
<path d="M393.17 395.371C387.974 398.528 386.664 404.817 390.249 409.392C393.834 413.966 400.978 415.12 406.173 411.963L427.279 399.14C432.475 395.984 433.785 389.694 430.2 385.119C426.615 380.545 419.471 379.391 414.276 382.548L393.17 395.371Z" fill="#6C63FF"/>
<path d="M407.476 292.627C399.278 297.607 397.212 307.531 402.868 314.749C408.525 321.967 419.795 323.786 427.992 318.806L460.824 298.859C469.021 293.878 471.089 283.955 465.432 276.737C459.776 269.52 448.505 267.699 440.308 272.68L407.476 292.627Z" fill="#6C63FF"/>
<path d="M600.604 314.586H351.536C342.941 314.586 335.948 308.429 335.948 300.862V211.387C335.948 203.819 342.941 197.663 351.536 197.663H600.604C609.199 197.663 616.191 203.819 616.191 211.387V300.862C616.191 308.429 609.199 314.586 600.604 314.586Z" fill="white"/>
<path d="M615.733 211.387V300.861C615.733 308.224 608.965 314.183 600.604 314.183H478.368C460.647 295.66 449.969 271.752 449.969 245.641C449.969 228.538 454.548 212.387 462.69 198.066H600.604C608.965 198.066 615.733 204.025 615.733 211.387Z" fill="#E6E6E6"/>
<path d="M600.603 316.166H351.536C341.952 316.166 334.153 309.301 334.153 300.862V211.386C334.153 202.947 341.952 196.083 351.536 196.083H600.603C610.188 196.083 617.986 202.947 617.986 211.386V300.862C617.986 309.301 610.188 316.166 600.603 316.166ZM351.536 199.243C343.93 199.243 337.742 204.69 337.742 211.386V300.862C337.742 307.559 343.93 313.006 351.536 313.006H600.603C608.209 313.006 614.397 307.559 614.397 300.862V211.386C614.397 204.69 608.209 199.243 600.603 199.243H351.536Z" fill="#3F3D56"/>
<path d="M366.629 283.944C360.316 283.944 355.181 288.466 355.181 294.024C355.181 299.581 360.316 304.103 366.629 304.103H392.272C398.584 304.103 403.719 299.581 403.719 294.024C403.719 288.466 398.584 283.944 392.272 283.944H366.629Z" fill="#6C63FF"/>
<path d="M444.677 206.533C434.717 206.533 426.615 213.667 426.615 222.436C426.615 231.206 434.717 238.339 444.677 238.339H484.567C494.526 238.339 502.629 231.206 502.629 222.436C502.629 213.667 494.526 206.533 484.567 206.533H444.677Z" fill="#6C63FF"/>
<path d="M808.769 624.274H559.7C551.106 624.274 544.113 618.118 544.113 610.55V521.075C544.113 513.507 551.106 507.351 559.7 507.351H808.769C817.363 507.351 824.356 513.507 824.356 521.075V610.55C824.356 618.118 817.363 624.274 808.769 624.274Z" fill="white"/>
<path d="M823.898 521.075V610.55C823.898 617.912 817.13 623.871 808.769 623.871H686.533C668.812 605.349 658.134 581.44 658.134 555.33C658.134 538.227 662.713 522.075 670.855 507.754H808.769C817.13 507.754 823.898 513.713 823.898 521.075Z" fill="#E6E6E6"/>
<path d="M808.768 625.854H559.701C550.117 625.854 542.318 618.989 542.318 610.551V521.075C542.318 512.636 550.117 505.771 559.701 505.771H808.768C818.352 505.771 826.151 512.636 826.151 521.075V610.551C826.151 618.989 818.352 625.854 808.768 625.854ZM559.701 508.931C552.095 508.931 545.907 514.378 545.907 521.075V610.551C545.907 617.247 552.095 622.694 559.701 622.694H808.768C816.374 622.694 822.562 617.247 822.562 610.551V521.075C822.562 514.378 816.374 508.931 808.768 508.931H559.701Z" fill="#3F3D56"/>
<path d="M574.793 593.632C568.481 593.632 563.345 598.154 563.345 603.712C563.345 609.27 568.481 613.791 574.793 613.791H600.436C606.749 613.791 611.884 609.27 611.884 603.712C611.884 598.154 606.749 593.632 600.436 593.632H574.793Z" fill="#6C63FF"/>
<path d="M652.842 516.221C642.882 516.221 634.78 523.356 634.78 532.125C634.78 540.894 642.882 548.028 652.842 548.028H692.731C702.691 548.028 710.793 540.894 710.793 532.125C710.793 523.356 702.691 516.221 692.731 516.221H652.842Z" fill="#6C63FF"/>
<path d="M825.663 544.021C802.788 554.508 778.1 552.617 770.522 539.798C762.944 526.979 775.346 508.09 798.23 497.601C807.307 493.301 817.421 490.977 827.726 490.824L925.286 447.466L944.661 481.478L848.892 526.628C842.838 533.976 834.873 539.94 825.663 544.021Z" fill="#A0616A"/>
<path d="M936.584 174.432C936.584 174.432 1037.08 169.692 1058.61 217.093C1080.15 264.494 1098.09 419.338 1098.09 419.338L879.159 524.212L841.474 473.06L988.625 371.937L936.584 174.432Z" fill="#3F3D56"/>
</g>
</g>
<defs>
<clipPath id="clip0_17_58">
<rect width="1292" height="1822" rx="50" fill="white"/>
</clipPath>
<clipPath id="clip1_17_58">
<rect width="1313" height="870" fill="white" transform="translate(-10 21)"/>
</clipPath>
</defs>
</svg>
